<svg xmlns="http://www.w3.org/2000/svg" width="253.982" height="38.833" viewBox="0 0 253.982 38.833">
  <g id="グループ_190" data-name="グループ 190" transform="translate(-240 -1268)">
    <g id="グループ_32" data-name="グループ 32" transform="translate(68.991 867.161)">
      <g id="グループ_30" data-name="グループ 30">
        <path id="パス_31" data-name="パス 31" d="M223.658,415.42a7.09,7.09,0,0,1-.919-1.29v4.607h-.989v-4.188a7.066,7.066,0,0,1-1.31,1.919l-.37-.309a8.588,8.588,0,0,0,1.61-4.028h-1.33v-.45h1.4v-1.539a4.8,4.8,0,0,0-.081-.679l1.07.019c.03,0,.11,0,.11.08,0,.04-.02.09-.11.25v1.869h1.039v.45h-1.009a6.6,6.6,0,0,0,1.269,2.978Zm-.309,2.408a7.725,7.725,0,0,0,2.5-3.448H223.9v-.45h2.439v-1.989H225a7.013,7.013,0,0,1-.94,1.23l-.44-.26a5.728,5.728,0,0,0,1.11-2.939l1.039.25c.04.01.12.04.12.11s-.14.18-.2.219c-.25.59-.35.781-.43.941h1.08v-1.279a3.908,3.908,0,0,0-.08-.76l.939.029c.04,0,.12.03.12.1a.647.647,0,0,1-.069.219v1.69H229.2v.449h-1.948v1.989h2.288v.45h-1.819a7.037,7.037,0,0,0,2.019,3.188l-.36.33a6.644,6.644,0,0,1-2.128-2.629v3.468h-.91v-3.418a7.892,7.892,0,0,1-2.649,2.839Z" fill="#fff"/>
        <path id="パス_32" data-name="パス 32" d="M235.1,417.148c.19-.05,1.029-.279,2.258-.659l-.069.51c-2.08.8-3.359,1.2-4.428,1.518-.1.141-.15.2-.21.2a.183.183,0,0,1-.13-.089l-.35-.831c.39-.059.9-.139,1.889-.378V414.16H232.54v-.44h4.118v.44H235.1Zm2.918-7.636c.06,0,.15.04.15.1a.484.484,0,0,1-.07.19c-.02.09-.02.66-.02.789,0,.29,0,.51.02.991h3.438v.449h-3.408c.2,2.489.56,3.948,1.449,5.167.23.31.4.45.58.45.22,0,.4-.13.73-1.56a3.371,3.371,0,0,0,.869.581c-.37,1.239-.73,2.1-1.589,2.1-.81,0-1.429-.879-1.549-1.059-.99-1.469-1.349-3.218-1.55-5.677H232.3v-.449h4.738c-.01-.231-.04-1.28-.05-1.49a6.2,6.2,0,0,0-.06-.62Zm1.969,1.98a8.183,8.183,0,0,0-1-1.659l.35-.311a8.176,8.176,0,0,1,1.62,1.3Z" fill="#fff"/>
        <path id="パス_33" data-name="パス 33" d="M225.677,421.472a7.513,7.513,0,0,0,4.038,3.5l-.32.43a9.08,9.08,0,0,1-4.478-3.109,9.391,9.391,0,0,1-4.407,3.1l-.34-.4a8.43,8.43,0,0,0,4.008-3.519Zm.57,6a18.273,18.273,0,0,1,2.649,2.589l-1.07.689c-.28-.53-.32-.6-.53-.99-2.048.27-3.648.48-5.7.73a.841.841,0,0,1-.33.17c-.06,0-.09-.06-.12-.18l-.23-.78a4.325,4.325,0,0,0,.58.031c.219,0,.469-.021.629-.031a28,28,0,0,0,1.35-2.668H220.55v-.45h8.8v.45h-4.527a24.4,24.4,0,0,1-1.859,2.628c2.239-.149,2.478-.17,4.088-.3a10.829,10.829,0,0,0-1.19-1.559Zm1.179-2.868v.449h-4.947V424.6Z" fill="#fff"/>
        <path id="パス_34" data-name="パス 34" d="M236.628,427.539a5.941,5.941,0,0,1-1.5-1.039v4.237h-.98V426.85a10.667,10.667,0,0,1-1.579,1.189l-.4-.33a7.173,7.173,0,0,0,2.849-3.668H232.36V423.6h1.769v-1.53a2.105,2.105,0,0,0-.06-.609l.99.03a.1.1,0,0,1,.109.1.37.37,0,0,1-.049.17v1.84h1.259a6.908,6.908,0,0,1-1.06,1.979,5.611,5.611,0,0,0,1.56,1.618Zm4.687-2.878v.44h-1.979v4.817h2.239v.441h-5.806v-.441h2.558V425.1h-1.849v-.44h1.849v-2.528a1.888,1.888,0,0,0-.11-.67l1.05.019c.039,0,.159,0,.159.091,0,.059-.02.079-.09.189v2.9Z" fill="#fff"/>
      </g>
      <g id="グループ_31" data-name="グループ 31">
        <line id="線_5" data-name="線 5" y2="21.168" transform="translate(247.418 409.684)"/>
        <rect id="長方形_84" data-name="長方形 84" width="1" height="21.167" transform="translate(246.918 409.684)" fill="#fff"/>
      </g>
      <path id="パス_35" data-name="パス 35" d="M271.134,417.231l1.727-1.728c-3.512-3.512-5.127-4.221-8.809-4.221s-10.764,2.1-10.764,9.663,6.345,9.907,11.614,9.907,7.959-2.4,7.959-2.4v-7.082H262.579l-1.331,1.332h7.506v5.013a4.77,4.77,0,0,1-3.569,1.247,7.451,7.451,0,0,1-7.081-7.891c0-6.442,4.645-7.745,6.741-7.745S268.811,413.832,271.134,417.231Z" fill="#fff"/>
      <path id="パス_36" data-name="パス 36" d="M307.5,417.231l1.728-1.728c-3.512-3.512-5.127-4.221-8.809-4.221s-10.764,2.1-10.764,9.663,6.345,9.907,11.613,9.907,7.96-2.4,7.96-2.4v-7.082H298.95l-1.332,1.332h7.507v5.013a4.772,4.772,0,0,1-3.569,1.247,7.451,7.451,0,0,1-7.082-7.891c0-6.442,4.646-7.745,6.742-7.745S305.181,413.832,307.5,417.231Z" fill="#fff"/>
      <path id="パス_37" data-name="パス 37" d="M278.442,420.268h8.384l-2.532,2.532h-8.118Z" fill="#fff"/>
      <path id="パス_38" data-name="パス 38" d="M325.8,421.31c2.379,0,4.588-2.833,4.588-4.872s-1.133-2.72-2.266-3.853l.964-.793H314.812v18.525h4.872v-8.554h.85l7.2,8.554H333Zm-4.743-.92-1.376,0v-7h1.968a3.289,3.289,0,0,1,3.582,3.272A4.025,4.025,0,0,1,321.06,420.39Z" fill="#fff"/>
      <path id="パス_39" data-name="パス 39" d="M349.05,412.153c5.63,4.319,12.08,10.933,8.035,16.017s-12.3.492-15.634-2.406l3.39-3.225c3.006,3.116,5.466,5.248,8.254,2.406s.328-6.56-.656-7.653l-1.148,1.257A13.449,13.449,0,0,0,349.05,412.153Z" fill="#fff"/>
      <path id="パス_40" data-name="パス 40" d="M343.073,429.221c-5.63-4.319-12.081-10.933-8.035-16.017s12.3-.492,15.633,2.4l-3.389,3.226c-3.006-3.116-5.466-5.248-8.254-2.406s-.328,6.56.656,7.653l1.148-1.257A13.45,13.45,0,0,0,343.073,429.221Z" fill="#fff"/>
      <path id="パス_41" data-name="パス 41" d="M358.671,411.552l7.543,18.9h2.077l3.882-9.45,3.881,9.45h1.913l7.489-18.9h-2.733l-4.756,11.917-5.084-11.917-4.592,12.19-4.373-10.386c-.382-.656.717-1.8,1.5-1.8Z" fill="#fff"/>
      <path id="パス_42" data-name="パス 42" d="M404.725,411.552H387.353v1.413h6.269v17.486h4.884V412.965h6.219Z" fill="#fff"/>
      <path id="パス_43" data-name="パス 43" d="M420.491,411.916v7.854H412.1v-5.628c0-2.05.875-1.92,1.523-2.226H407.6v18.535h4.5v-9.268h8.394v9.268h4.5V411.916Z" fill="#fff"/>
      <circle id="楕円形_1" data-name="楕円形 1" cx="1.259" cy="1.259" r="1.259" transform="translate(211.248 400.839)" fill="#fff"/>
      <circle id="楕円形_2" data-name="楕円形 2" cx="2.169" cy="2.169" r="2.169" transform="translate(205.72 403.638)" fill="#fff"/>
      <path id="パス_44" data-name="パス 44" d="M188.947,410.507c1-.916,6.636-6.66,14.143-1.38a10.223,10.223,0,0,1,.63,14.309c-1.453,1.571-2.035,2.062-5.417,3.571-3.568-.769-7.7-4.815-7.7-4.815l-5.653,3.581c-1.138,2.585-2.876,11.52-2.876,11.52s8.459,3.218,17.975-2.519,10.977-15.838,5.877-24.267c-5.642-9.325-19.241-5.33-24-1.762S173.6,419.8,173.464,424.6s.28,8.982,5.668,15.07h1.329c.14-10.426,4.9-18.122,7-21.341l-.788-4.611A9.026,9.026,0,0,1,188.947,410.507Z" fill="#fff"/>
      <path id="パス_45" data-name="パス 45" d="M202.563,410.741c-3.3-3.3-8.83-3.112-12.357.415a9.512,9.512,0,0,0-2.117,3.211l.6,3.895-1.014,1.492h0a8.027,8.027,0,0,0,1.259,2.756l2.131-1.412c3.4,2.857,5.446,4,6.737,4.491a9.453,9.453,0,0,0,4.341-2.491C205.675,419.571,205.861,414.039,202.563,410.741Z" fill="#fff"/>
      <path id="パス_46" data-name="パス 46" d="M172.188,427.823l-1.179,1.841a7.781,7.781,0,0,0,2.131,2.513,7.411,7.411,0,0,1-.69-4.354Z" fill="#fff"/>
    </g>
  </g>
</svg>
