<svg xmlns="http://www.w3.org/2000/svg" width="11.2" height="73.136" viewBox="0 0 11.2 73.136">
  <path id="パス_334" data-name="パス 334" d="M3.28,0H6.7a1.959,1.959,0,0,0,2.24-2.24V-3.776c0-1.6-1.008-2-2.3-2.288l-3.088-.7c-.656-.144-.944-.352-.944-1.04V-8.976c0-.624.24-.864.864-.864H6.384c.624,0,.864.24.864.864v1.12h1.52v-1.1a1.959,1.959,0,0,0-2.24-2.24H3.312a1.959,1.959,0,0,0-2.24,2.24V-7.6c0,1.6.992,2,2.3,2.288l3.072.688c.672.16.96.368.96,1.056v1.344c0,.624-.24.864-.88.864h-3.1c-.64,0-.88-.24-.88-.864V-3.472H1.04V-2.24A1.959,1.959,0,0,0,3.28,0Zm13.3,0h3.456a1.978,1.978,0,0,0,2.24-2.24V-3.664H20.736v1.376c0,.64-.24.88-.88.88h-3.12c-.624,0-.864-.24-.864-.88V-8.912c0-.64.24-.88.864-.88h3.12c.64,0,.88.24.88.88v1.376h1.536V-8.96a1.959,1.959,0,0,0-2.24-2.24H16.576a1.959,1.959,0,0,0-2.24,2.24v6.72A1.978,1.978,0,0,0,16.576,0ZM33.792-4.432c1.312-.1,1.936-.816,1.936-2.224v-2.3a1.959,1.959,0,0,0-2.24-2.24H27.872V0h1.536V-4.4h2.7L34.4,0h1.68Zm-4.384-1.36V-9.808h3.9c.64,0,.88.24.88.88v2.272c0,.624-.24.864-.88.864ZM43.5,0h3.728a1.959,1.959,0,0,0,2.24-2.24V-8.96a1.959,1.959,0,0,0-2.24-2.24H43.5a1.959,1.959,0,0,0-2.24,2.24v6.72A1.959,1.959,0,0,0,43.5,0Zm.16-1.408c-.624,0-.864-.24-.864-.88V-8.912c0-.64.24-.88.864-.88h3.392c.64,0,.88.24.88.88v6.624c0,.64-.24.88-.88.88ZM55.264,0h6.848V-1.408H56.8V-11.2H55.264ZM67.328,0h6.848V-1.408H68.864V-11.2H67.328Z" transform="translate(11.2 74.176) rotate(-90)" fill="#fff"/>
</svg>
