<svg xmlns="http://www.w3.org/2000/svg" width="74" height="93.106" viewBox="0 0 74 93.106">
  <path id="パス_718" data-name="パス 718" d="M397,369V350.381l-36.553-18.276-.447-.213-.447.213-36,18-.553.284v64.229l20,10v-64l17-8.5,19.706,9.853L359,377.5v19L397,425V404.5L373.666,387,396.6,369.8Zm-56,52.382-16-8V352.618l16,8Zm18-71-17,8.5L326.236,351,359,334.618Zm2,0V334.618l33.106,16.553-12.611,9.458Zm0,45.117V380l9.333,7L372,388.25l23,17.25V421Zm34-27.026L372,385.75,361.666,378,381.7,362.971l1.79-1.342L395,353Z" transform="translate(-323 -331.892)" fill="#707070"/>
</svg>
