<svg xmlns="http://www.w3.org/2000/svg" width="72" height="59.977" viewBox="0 0 72 59.977">
  <g id="グループ_201" data-name="グループ 201" transform="translate(1799.721 -1056)">
    <path id="パス_714" data-name="パス 714" d="M-1766.8,1092.391h-21.374a4.9,4.9,0,0,1-4.893-4.89v-20.472a4.9,4.9,0,0,1,4.893-4.89h21.374a4.9,4.9,0,0,1,4.894,4.89V1087.5A4.9,4.9,0,0,1-1766.8,1092.391Zm-21.374-29.037a3.678,3.678,0,0,0-3.675,3.675V1087.5a3.677,3.677,0,0,0,3.675,3.675h21.374a3.678,3.678,0,0,0,3.676-3.675v-20.472a3.678,3.678,0,0,0-3.676-3.675Z" transform="translate(13.763 12.695)" fill="#30383b"/>
    <path id="パス_715" data-name="パス 715" d="M-1758.077,1072.416h-30.854a6.062,6.062,0,0,1-6.059-6.05,6.068,6.068,0,0,1,6.059-6.056h9.63a6.081,6.081,0,0,1,5.8-4.31,6.094,6.094,0,0,1,5.8,4.31h9.63a6.06,6.06,0,0,1,6.05,6.056A6.054,6.054,0,0,1-1758.077,1072.416Zm-30.854-10.891a4.847,4.847,0,0,0-4.841,4.841,4.839,4.839,0,0,0,4.841,4.832h30.854a4.831,4.831,0,0,0,4.832-4.832,4.839,4.839,0,0,0-4.832-4.841h-10.594l-.1-.482a4.859,4.859,0,0,0-4.731-3.826,4.85,4.85,0,0,0-4.734,3.826l-.1.482Z" transform="translate(9.783)" fill="#30383b"/>
    <rect id="長方形_104" data-name="長方形 104" width="1.217" height="3.633" transform="translate(-1769.779 1071.808)" fill="#30383b"/>
    <rect id="長方形_105" data-name="長方形 105" width="1.217" height="3.633" transform="translate(-1758.888 1071.808)" fill="#30383b"/>
    <path id="パス_716" data-name="パス 716" d="M-1785.8,1098.084h-13.925v-12.41c0-12.769,8.256-21.021,21.03-21.021h.608v13.916h-.608c-3.516,0-7.105.844-7.105,7.105Zm-12.707-1.215h11.489v-11.195c0-7.047,4.24-8.2,7.713-8.314v-11.493c-11.692.264-19.2,7.977-19.2,19.806Z" transform="translate(0 17.893)" fill="#30383b"/>
    <path id="パス_717" data-name="パス 717" d="M-1761.667,1098.084h-13.922v-12.41c0-6.261-3.593-7.105-7.1-7.105h-.611v-13.916h.611c12.771,0,21.027,8.253,21.027,21.021Zm-12.708-1.215h11.49v-11.195c0-11.829-7.51-19.542-19.2-19.806v11.493c3.473.11,7.712,1.267,7.712,8.314Z" transform="translate(33.946 17.893)" fill="#30383b"/>
  </g>
</svg>
