<svg xmlns="http://www.w3.org/2000/svg" width="556.359" height="545.123" viewBox="0 0 556.359 545.123">
  <g id="グループ_189" data-name="グループ 189" transform="translate(-1309 -1494)">
    <g id="グループ_188" data-name="グループ 188" transform="translate(1414.991 1474.161)">
      <path id="パス_35" data-name="パス 35" d="M271.134,417.231l1.727-1.728c-3.512-3.512-5.127-4.221-8.809-4.221s-10.764,2.1-10.764,9.663,6.345,9.907,11.614,9.907,7.959-2.4,7.959-2.4v-7.082H262.579l-1.331,1.332h7.506v5.013a4.77,4.77,0,0,1-3.569,1.247,7.451,7.451,0,0,1-7.081-7.891c0-6.442,4.645-7.745,6.741-7.745S268.811,413.832,271.134,417.231Z" fill="#fff"/>
      <path id="パス_36" data-name="パス 36" d="M307.5,417.231l1.728-1.728c-3.512-3.512-5.127-4.221-8.809-4.221s-10.764,2.1-10.764,9.663,6.345,9.907,11.613,9.907,7.96-2.4,7.96-2.4v-7.082H298.95l-1.332,1.332h7.507v5.013a4.772,4.772,0,0,1-3.569,1.247,7.451,7.451,0,0,1-7.082-7.891c0-6.442,4.646-7.745,6.742-7.745S305.181,413.832,307.5,417.231Z" fill="#fff"/>
      <path id="パス_37" data-name="パス 37" d="M278.442,420.268h8.384l-2.532,2.532h-8.118Z" fill="#fff"/>
      <path id="パス_38" data-name="パス 38" d="M325.8,421.31c2.379,0,4.588-2.833,4.588-4.872s-1.133-2.72-2.266-3.853l.964-.793H314.812v18.525h4.872v-8.554h.85l7.2,8.554H333Zm-4.743-.92-1.376,0v-7h1.968a3.289,3.289,0,0,1,3.582,3.272A4.025,4.025,0,0,1,321.06,420.39Z" fill="#fff"/>
      <path id="パス_39" data-name="パス 39" d="M349.05,412.153c5.63,4.319,12.08,10.933,8.035,16.017s-12.3.492-15.634-2.406l3.39-3.225c3.006,3.116,5.466,5.248,8.254,2.406s.328-6.56-.656-7.653l-1.148,1.257A13.449,13.449,0,0,0,349.05,412.153Z" fill="#fff"/>
      <path id="パス_40" data-name="パス 40" d="M343.073,429.221c-5.63-4.319-12.081-10.933-8.035-16.017s12.3-.492,15.633,2.4l-3.389,3.226c-3.006-3.116-5.466-5.248-8.254-2.406s-.328,6.56.656,7.653l1.148-1.257A13.45,13.45,0,0,0,343.073,429.221Z" fill="#fff"/>
      <path id="パス_41" data-name="パス 41" d="M358.671,411.552l7.543,18.9h2.077l3.882-9.45,3.881,9.45h1.913l7.489-18.9h-2.733l-4.756,11.917-5.084-11.917-4.592,12.19-4.373-10.386c-.382-.656.717-1.8,1.5-1.8Z" fill="#fff"/>
      <path id="パス_42" data-name="パス 42" d="M404.725,411.552H387.353v1.413h6.269v17.486h4.884V412.965h6.219Z" fill="#fff"/>
      <path id="パス_43" data-name="パス 43" d="M420.491,411.916v7.854H412.1v-5.628c0-2.05.875-1.92,1.523-2.226H407.6v18.535h4.5v-9.268h8.394v9.268h4.5V411.916Z" fill="#fff"/>
    </g>
    <g id="グループ_187" data-name="グループ 187" transform="translate(1286.179 1483.195)">
      <g id="_綫7" data-name="ﾍｼｲ綫7">
        <g id="グループ_42" data-name="グループ 42">
          <g id="グループ_33" data-name="グループ 33">
            <path id="パス_47" data-name="パス 47" d="M401,370.181a2.7,2.7,0,1,1-2.326-3.03A2.7,2.7,0,0,1,401,370.181Z" fill="#fff"/>
          </g>
          <g id="グループ_34" data-name="グループ 34">
            <path id="パス_48" data-name="パス 48" d="M397.153,305.686a1.055,1.055,0,1,1-.908-1.184A1.055,1.055,0,0,1,397.153,305.686Z" fill="#fff"/>
          </g>
          <g id="グループ_35" data-name="グループ 35">
            <path id="パス_49" data-name="パス 49" d="M360.363,373.238a2.359,2.359,0,1,1-2.031-2.645A2.359,2.359,0,0,1,360.363,373.238Z" fill="#fff"/>
          </g>
          <g id="グループ_36" data-name="グループ 36">
            <path id="パス_50" data-name="パス 50" d="M320.762,398.389a2.088,2.088,0,1,1-1.8-2.343A2.089,2.089,0,0,1,320.762,398.389Z" fill="#fff"/>
          </g>
          <g id="グループ_37" data-name="グループ 37">
            <path id="パス_51" data-name="パス 51" d="M194.791,350.334a1.27,1.27,0,1,1-1.094-1.425A1.271,1.271,0,0,1,194.791,350.334Z" fill="#fff"/>
          </g>
          <g id="グループ_38" data-name="グループ 38">
            <path id="パス_52" data-name="パス 52" d="M232.6,318.969a1.551,1.551,0,1,1-1.335-1.74A1.549,1.549,0,0,1,232.6,318.969Z" fill="#fff"/>
          </g>
          <g id="グループ_39" data-name="グループ 39">
            <path id="パス_53" data-name="パス 53" d="M281.893,293.554a2.608,2.608,0,1,1-2.246-2.925A2.608,2.608,0,0,1,281.893,293.554Z" fill="#fff"/>
          </g>
          <g id="グループ_40" data-name="グループ 40">
            <path id="パス_54" data-name="パス 54" d="M342.29,238.874a3.022,3.022,0,1,1-2.6-3.39A3.023,3.023,0,0,1,342.29,238.874Z" fill="#fff"/>
          </g>
          <g id="グループ_41" data-name="グループ 41">
            <path id="パス_55" data-name="パス 55" d="M379.444,160.273a2.724,2.724,0,1,1-2.346-3.056A2.724,2.724,0,0,1,379.444,160.273Z" fill="#fff"/>
          </g>
        </g>
        <g id="グループ_61" data-name="グループ 61">
          <g id="グループ_43" data-name="グループ 43">
            <path id="パス_56" data-name="パス 56" d="M296.853,249.162a1.787,1.787,0,1,1-1.539-2.005A1.787,1.787,0,0,1,296.853,249.162Z" fill="#fff"/>
          </g>
          <g id="グループ_44" data-name="グループ 44">
            <path id="パス_57" data-name="パス 57" d="M286.04,221.122a.845.845,0,1,1-.727-.948A.845.845,0,0,1,286.04,221.122Z" fill="#fff"/>
          </g>
          <g id="グループ_45" data-name="グループ 45">
            <path id="パス_58" data-name="パス 58" d="M282.571,188.245a.557.557,0,1,1-.48-.625A.556.556,0,0,1,282.571,188.245Z" fill="#fff"/>
          </g>
          <g id="グループ_46" data-name="グループ 46">
            <path id="パス_59" data-name="パス 59" d="M242.815,205.95a1.586,1.586,0,1,1-1.366-1.779A1.586,1.586,0,0,1,242.815,205.95Z" fill="#fff"/>
          </g>
          <g id="グループ_47" data-name="グループ 47">
            <path id="パス_60" data-name="パス 60" d="M155.844,187.127a1.876,1.876,0,1,1-1.615-2.1A1.876,1.876,0,0,1,155.844,187.127Z" fill="#fff"/>
          </g>
          <g id="グループ_48" data-name="グループ 48">
            <path id="パス_61" data-name="パス 61" d="M144.306,213.754a2.786,2.786,0,1,1-2.4-3.124A2.785,2.785,0,0,1,144.306,213.754Z" fill="#fff"/>
          </g>
          <g id="グループ_49" data-name="グループ 49">
            <path id="パス_62" data-name="パス 62" d="M109,288.9a2.7,2.7,0,1,1-2.326-3.029A2.7,2.7,0,0,1,109,288.9Z" fill="#fff"/>
          </g>
          <g id="グループ_50" data-name="グループ 50">
            <path id="パス_63" data-name="パス 63" d="M168.421,336.392a2.388,2.388,0,1,1-2.056-2.679A2.387,2.387,0,0,1,168.421,336.392Z" fill="#fff"/>
          </g>
          <g id="グループ_51" data-name="グループ 51">
            <path id="パス_64" data-name="パス 64" d="M169,380.313a1.833,1.833,0,1,1-1.578-2.056A1.833,1.833,0,0,1,169,380.313Z" fill="#fff"/>
          </g>
          <g id="グループ_52" data-name="グループ 52">
            <path id="パス_65" data-name="パス 65" d="M88.682,378.736a2.855,2.855,0,1,1-2.459-3.2A2.855,2.855,0,0,1,88.682,378.736Z" fill="#fff"/>
          </g>
          <g id="グループ_53" data-name="グループ 53">
            <path id="パス_66" data-name="パス 66" d="M128.21,299.189a2.316,2.316,0,1,1-2-2.6A2.316,2.316,0,0,1,128.21,299.189Z" fill="#fff"/>
          </g>
          <g id="グループ_54" data-name="グループ 54">
            <path id="パス_67" data-name="パス 67" d="M63.658,242.962a1.668,1.668,0,1,1-1.436-1.87A1.668,1.668,0,0,1,63.658,242.962Z" fill="#fff"/>
          </g>
          <g id="グループ_55" data-name="グループ 55">
            <path id="パス_68" data-name="パス 68" d="M142.641,253.941a1.337,1.337,0,1,1-1.152-1.5A1.338,1.338,0,0,1,142.641,253.941Z" fill="#fff"/>
          </g>
          <g id="グループ_56" data-name="グループ 56">
            <path id="パス_69" data-name="パス 69" d="M137.622,141.8a.9.9,0,1,1-.775-1.009A.9.9,0,0,1,137.622,141.8Z" fill="#fff"/>
          </g>
          <g id="グループ_57" data-name="グループ 57">
            <path id="パス_70" data-name="パス 70" d="M163.518,133.945a2.058,2.058,0,1,1-1.772-2.308A2.059,2.059,0,0,1,163.518,133.945Z" fill="#fff"/>
          </g>
          <g id="グループ_58" data-name="グループ 58">
            <path id="パス_71" data-name="パス 71" d="M231.536,168.753a1.026,1.026,0,1,1-.884-1.151A1.026,1.026,0,0,1,231.536,168.753Z" fill="#fff"/>
          </g>
          <g id="グループ_59" data-name="グループ 59">
            <path id="パス_72" data-name="パス 72" d="M259.811,89.677a2.657,2.657,0,1,1-2.288-2.98A2.657,2.657,0,0,1,259.811,89.677Z" fill="#fff"/>
          </g>
          <g id="グループ_60" data-name="グループ 60">
            <path id="パス_73" data-name="パス 73" d="M343.537,125.956a2.157,2.157,0,1,1-1.857-2.42A2.157,2.157,0,0,1,343.537,125.956Z" fill="#fff"/>
          </g>
        </g>
        <g id="グループ_65" data-name="グループ 65">
          <g id="グループ_62" data-name="グループ 62">
            <path id="パス_74" data-name="パス 74" d="M508.76,145.657a2.819,2.819,0,1,1-2.428-3.162A2.819,2.819,0,0,1,508.76,145.657Z" fill="#fff"/>
          </g>
          <g id="グループ_63" data-name="グループ 63">
            <path id="パス_75" data-name="パス 75" d="M475.508,103.253a.492.492,0,1,1-.424-.552A.493.493,0,0,1,475.508,103.253Z" fill="#fff"/>
          </g>
          <g id="グループ_64" data-name="グループ 64">
            <path id="パス_76" data-name="パス 76" d="M446.4,47.766a1.411,1.411,0,1,1-1.215-1.583A1.411,1.411,0,0,1,446.4,47.766Z" fill="#fff"/>
          </g>
        </g>
        <g id="グループ_71" data-name="グループ 71">
          <g id="グループ_66" data-name="グループ 66">
            <path id="パス_77" data-name="パス 77" d="M216.74,98.592a.607.607,0,1,1-.522-.681A.606.606,0,0,1,216.74,98.592Z" fill="#fff"/>
          </g>
          <g id="グループ_67" data-name="グループ 67">
            <path id="パス_78" data-name="パス 78" d="M205.831,79.449a2.141,2.141,0,1,1-1.844-2.4A2.142,2.142,0,0,1,205.831,79.449Z" fill="#fff"/>
          </g>
          <g id="グループ_68" data-name="グループ 68">
            <path id="パス_79" data-name="パス 79" d="M187.615,113.188A1.061,1.061,0,1,1,186.7,112,1.06,1.06,0,0,1,187.615,113.188Z" fill="#fff"/>
          </g>
          <g id="グループ_69" data-name="グループ 69">
            <path id="パス_80" data-name="パス 80" d="M159.209,111.482a1.911,1.911,0,1,1-1.645-2.143A1.91,1.91,0,0,1,159.209,111.482Z" fill="#fff"/>
          </g>
          <g id="グループ_70" data-name="グループ 70">
            <path id="パス_81" data-name="パス 81" d="M81.106,95.256A1.753,1.753,0,1,1,79.6,93.289,1.752,1.752,0,0,1,81.106,95.256Z" fill="#fff"/>
          </g>
        </g>
        <g id="グループ_78" data-name="グループ 78">
          <g id="グループ_72" data-name="グループ 72">
            <path id="パス_82" data-name="パス 82" d="M102.665,203.042a2.428,2.428,0,1,1-2.091-2.724A2.427,2.427,0,0,1,102.665,203.042Z" fill="#fff"/>
          </g>
          <g id="グループ_73" data-name="グループ 73">
            <path id="パス_83" data-name="パス 83" d="M105.2,181.96a.441.441,0,1,1-.38-.5A.441.441,0,0,1,105.2,181.96Z" fill="#fff"/>
          </g>
          <g id="グループ_74" data-name="グループ 74">
            <path id="パス_84" data-name="パス 84" d="M115.176,150.13a.546.546,0,1,1-.47-.613A.546.546,0,0,1,115.176,150.13Z" fill="#fff"/>
          </g>
          <g id="グループ_75" data-name="グループ 75">
            <path id="パス_85" data-name="パス 85" d="M139.371,114.98a2.447,2.447,0,1,1-2.108-2.745A2.447,2.447,0,0,1,139.371,114.98Z" fill="#fff"/>
          </g>
          <g id="グループ_76" data-name="グループ 76">
            <path id="パス_86" data-name="パス 86" d="M183.4,34.325a1.39,1.39,0,1,1-1.2-1.559A1.39,1.39,0,0,1,183.4,34.325Z" fill="#fff"/>
          </g>
          <g id="グループ_77" data-name="グループ 77">
            <path id="パス_87" data-name="パス 87" d="M204.93,11.355a.486.486,0,1,1-.418-.546A.486.486,0,0,1,204.93,11.355Z" fill="#fff"/>
          </g>
        </g>
        <g id="グループ_84" data-name="グループ 84">
          <g id="グループ_79" data-name="グループ 79">
            <path id="パス_88" data-name="パス 88" d="M291.6,32.681a.925.925,0,1,1-.8-1.038A.926.926,0,0,1,291.6,32.681Z" fill="#fff"/>
          </g>
          <g id="グループ_80" data-name="グループ 80">
            <path id="パス_89" data-name="パス 89" d="M230.415,44.044a.479.479,0,1,1-.412-.537A.479.479,0,0,1,230.415,44.044Z" fill="#fff"/>
          </g>
          <g id="グループ_81" data-name="グループ 81">
            <path id="パス_90" data-name="パス 90" d="M200.475,109.849a2.6,2.6,0,1,1-2.235-2.912A2.6,2.6,0,0,1,200.475,109.849Z" fill="#fff"/>
          </g>
          <g id="グループ_82" data-name="グループ 82">
            <path id="パス_91" data-name="パス 91" d="M174.958,81.524a1.939,1.939,0,1,1-1.67-2.175A1.939,1.939,0,0,1,174.958,81.524Z" fill="#fff"/>
          </g>
          <g id="グループ_83" data-name="グループ 83">
            <path id="パス_92" data-name="パス 92" d="M129.49,58.253a.738.738,0,1,1-.635-.828A.739.739,0,0,1,129.49,58.253Z" fill="#fff"/>
          </g>
        </g>
        <g id="グループ_89" data-name="グループ 89">
          <g id="グループ_85" data-name="グループ 85">
            <path id="パス_93" data-name="パス 93" d="M70.062,272.51a1.038,1.038,0,1,1-.894-1.165A1.039,1.039,0,0,1,70.062,272.51Z" fill="#fff"/>
          </g>
          <g id="グループ_86" data-name="グループ 86">
            <path id="パス_94" data-name="パス 94" d="M66.326,196.576a.877.877,0,1,1-.755-.984A.876.876,0,0,1,66.326,196.576Z" fill="#fff"/>
          </g>
          <g id="グループ_87" data-name="グループ 87">
            <path id="パス_95" data-name="パス 95" d="M102.153,184.655a1.633,1.633,0,1,1-1.406-1.833A1.634,1.634,0,0,1,102.153,184.655Z" fill="#fff"/>
          </g>
          <g id="グループ_88" data-name="グループ 88">
            <path id="パス_96" data-name="パス 96" d="M86.655,97.077A2.564,2.564,0,1,1,84.447,94.2,2.565,2.565,0,0,1,86.655,97.077Z" fill="#fff"/>
          </g>
        </g>
        <g id="グループ_98" data-name="グループ 98">
          <g id="グループ_90" data-name="グループ 90">
            <path id="パス_97" data-name="パス 97" d="M203.243,523.451a2.146,2.146,0,1,1-1.848-2.406A2.145,2.145,0,0,1,203.243,523.451Z" fill="#fff"/>
          </g>
          <g id="グループ_91" data-name="グループ 91">
            <path id="パス_98" data-name="パス 98" d="M170.74,501.788a2.658,2.658,0,1,1-2.289-2.982A2.657,2.657,0,0,1,170.74,501.788Z" fill="#fff"/>
          </g>
          <g id="グループ_92" data-name="グループ 92">
            <path id="パス_99" data-name="パス 99" d="M110.539,501.453a1.233,1.233,0,1,1-1.062-1.384A1.232,1.232,0,0,1,110.539,501.453Z" fill="#fff"/>
          </g>
          <g id="グループ_93" data-name="グループ 93">
            <path id="パス_100" data-name="パス 100" d="M91.6,433.676a2.879,2.879,0,1,1-2.479-3.229A2.879,2.879,0,0,1,91.6,433.676Z" fill="#fff"/>
          </g>
          <g id="グループ_94" data-name="グループ 94">
            <path id="パス_101" data-name="パス 101" d="M88.057,384.8a2.009,2.009,0,1,1-1.73-2.253A2.009,2.009,0,0,1,88.057,384.8Z" fill="#fff"/>
          </g>
          <g id="グループ_95" data-name="グループ 95">
            <path id="パス_102" data-name="パス 102" d="M28.726,353.552a.943.943,0,1,1-.812-1.058A.944.944,0,0,1,28.726,353.552Z" fill="#fff"/>
          </g>
          <g id="グループ_96" data-name="グループ 96">
            <path id="パス_103" data-name="パス 103" d="M56.593,282.068a1.79,1.79,0,1,1-1.542-2.008A1.792,1.792,0,0,1,56.593,282.068Z" fill="#fff"/>
          </g>
          <g id="グループ_97" data-name="グループ 97">
            <path id="パス_104" data-name="パス 104" d="M37.617,253.942a1.513,1.513,0,1,1-1.3-1.7A1.514,1.514,0,0,1,37.617,253.942Z" fill="#fff"/>
          </g>
        </g>
        <g id="グループ_103" data-name="グループ 103">
          <g id="グループ_99" data-name="グループ 99">
            <path id="パス_105" data-name="パス 105" d="M47.321,415.235a2.5,2.5,0,1,1-2.155-2.807A2.5,2.5,0,0,1,47.321,415.235Z" fill="#fff"/>
          </g>
          <g id="グループ_100" data-name="グループ 100">
            <path id="パス_106" data-name="パス 106" d="M124.4,419.717a2.119,2.119,0,1,1-1.825-2.377A2.12,2.12,0,0,1,124.4,419.717Z" fill="#fff"/>
          </g>
          <g id="グループ_101" data-name="グループ 101">
            <path id="パス_107" data-name="パス 107" d="M117.98,491a2.308,2.308,0,1,1-1.987-2.59A2.308,2.308,0,0,1,117.98,491Z" fill="#fff"/>
          </g>
          <g id="グループ_102" data-name="グループ 102">
            <path id="パス_108" data-name="パス 108" d="M185.384,553.137a.893.893,0,1,1-.769-1A.893.893,0,0,1,185.384,553.137Z" fill="#fff"/>
          </g>
        </g>
        <g id="グループ_109" data-name="グループ 109">
          <g id="グループ_104" data-name="グループ 104">
            <path id="パス_109" data-name="パス 109" d="M128.041,445.921a2.908,2.908,0,1,1-2.5-3.262A2.907,2.907,0,0,1,128.041,445.921Z" fill="#fff"/>
          </g>
          <g id="グループ_105" data-name="グループ 105">
            <path id="パス_110" data-name="パス 110" d="M132.585,518.385a1.806,1.806,0,1,1-1.556-2.026A1.806,1.806,0,0,1,132.585,518.385Z" fill="#fff"/>
          </g>
          <g id="グループ_106" data-name="グループ 106">
            <path id="パス_111" data-name="パス 111" d="M202.541,554.3a.873.873,0,1,1-.752-.979A.873.873,0,0,1,202.541,554.3Z" fill="#fff"/>
          </g>
          <g id="グループ_107" data-name="グループ 107">
            <path id="パス_112" data-name="パス 112" d="M266.4,528.888a1.9,1.9,0,1,1-1.635-2.13A1.9,1.9,0,0,1,266.4,528.888Z" fill="#fff"/>
          </g>
          <g id="グループ_108" data-name="グループ 108">
            <path id="パス_113" data-name="パス 113" d="M333.057,535.97a2.232,2.232,0,1,1-1.922-2.5A2.233,2.233,0,0,1,333.057,535.97Z" fill="#fff"/>
          </g>
        </g>
        <g id="グループ_117" data-name="グループ 117">
          <g id="グループ_110" data-name="グループ 110">
            <path id="パス_114" data-name="パス 114" d="M94.5,480.032a2.864,2.864,0,1,1-2.466-3.212A2.864,2.864,0,0,1,94.5,480.032Z" fill="#fff"/>
          </g>
          <g id="グループ_111" data-name="グループ 111">
            <path id="パス_115" data-name="パス 115" d="M33.158,417.761a1.836,1.836,0,1,1-1.581-2.06A1.836,1.836,0,0,1,33.158,417.761Z" fill="#fff"/>
          </g>
          <g id="グループ_112" data-name="グループ 112">
            <path id="パス_116" data-name="パス 116" d="M57.337,365.173a2.378,2.378,0,1,1-2.048-2.668A2.379,2.379,0,0,1,57.337,365.173Z" fill="#fff"/>
          </g>
          <g id="グループ_113" data-name="グループ 113">
            <path id="パス_117" data-name="パス 117" d="M42.437,338.445a2.925,2.925,0,1,1-2.519-3.281A2.925,2.925,0,0,1,42.437,338.445Z" fill="#fff"/>
          </g>
          <g id="グループ_114" data-name="グループ 114">
            <path id="パス_118" data-name="パス 118" d="M44.221,274.869a2.058,2.058,0,1,1-1.772-2.308A2.058,2.058,0,0,1,44.221,274.869Z" fill="#fff"/>
          </g>
          <g id="グループ_115" data-name="グループ 115">
            <path id="パス_119" data-name="パス 119" d="M32.534,225.772a.63.63,0,1,1-.542-.706A.63.63,0,0,1,32.534,225.772Z" fill="#fff"/>
          </g>
          <g id="グループ_116" data-name="グループ 116">
            <path id="パス_120" data-name="パス 120" d="M26.406,177.594a1.8,1.8,0,1,1-1.55-2.02A1.8,1.8,0,0,1,26.406,177.594Z" fill="#fff"/>
          </g>
        </g>
        <g id="グループ_122" data-name="グループ 122">
          <g id="グループ_118" data-name="グループ 118">
            <path id="パス_121" data-name="パス 121" d="M487.078,181.289a1.3,1.3,0,1,1-1.123-1.462A1.3,1.3,0,0,1,487.078,181.289Z" fill="#fff"/>
          </g>
          <g id="グループ_119" data-name="グループ 119">
            <path id="パス_122" data-name="パス 122" d="M510.218,116.113a1.514,1.514,0,1,1-1.3-1.7A1.514,1.514,0,0,1,510.218,116.113Z" fill="#fff"/>
          </g>
          <g id="グループ_120" data-name="グループ 120">
            <path id="パス_123" data-name="パス 123" d="M438.3,62.535a1.923,1.923,0,1,1-1.656-2.157A1.923,1.923,0,0,1,438.3,62.535Z" fill="#fff"/>
          </g>
          <g id="グループ_121" data-name="グループ 121">
            <path id="パス_124" data-name="パス 124" d="M365.742,95.462a2.831,2.831,0,1,1-2.438-3.175A2.832,2.832,0,0,1,365.742,95.462Z" fill="#fff"/>
          </g>
        </g>
        <g id="グループ_128" data-name="グループ 128">
          <g id="グループ_123" data-name="グループ 123">
            <path id="パス_125" data-name="パス 125" d="M504.812,190.839a.972.972,0,1,1-.837-1.09A.972.972,0,0,1,504.812,190.839Z" fill="#fff"/>
          </g>
          <g id="グループ_124" data-name="グループ 124">
            <path id="パス_126" data-name="パス 126" d="M504.923,155.126a2.736,2.736,0,1,1-2.357-3.069A2.737,2.737,0,0,1,504.923,155.126Z" fill="#fff"/>
          </g>
          <g id="グループ_125" data-name="グループ 125">
            <path id="パス_127" data-name="パス 127" d="M432.708,110.457a2.857,2.857,0,1,1-2.46-3.205A2.856,2.856,0,0,1,432.708,110.457Z" fill="#fff"/>
          </g>
          <g id="グループ_126" data-name="グループ 126">
            <path id="パス_128" data-name="パス 128" d="M395.067,106.04a1.534,1.534,0,1,1-1.321-1.721A1.535,1.535,0,0,1,395.067,106.04Z" fill="#fff"/>
          </g>
          <g id="グループ_127" data-name="グループ 127">
            <path id="パス_129" data-name="パス 129" d="M380.967,64.331a2.98,2.98,0,1,1-2.566-3.343A2.98,2.98,0,0,1,380.967,64.331Z" fill="#fff"/>
          </g>
        </g>
        <g id="グループ_132" data-name="グループ 132">
          <g id="グループ_129" data-name="グループ 129">
            <path id="パス_130" data-name="パス 130" d="M492.083,145.832a3.027,3.027,0,1,1-2.607-3.4A3.027,3.027,0,0,1,492.083,145.832Z" fill="#fff"/>
          </g>
          <g id="グループ_130" data-name="グループ 130">
            <path id="パス_131" data-name="パス 131" d="M379.349,127.329a1.013,1.013,0,1,1-.872-1.136A1.013,1.013,0,0,1,379.349,127.329Z" fill="#fff"/>
          </g>
          <g id="グループ_131" data-name="グループ 131">
            <path id="パス_132" data-name="パス 132" d="M360.7,23.949a1.457,1.457,0,1,1-1.255-1.635A1.458,1.458,0,0,1,360.7,23.949Z" fill="#fff"/>
          </g>
        </g>
        <g id="グループ_137" data-name="グループ 137">
          <g id="グループ_133" data-name="グループ 133">
            <path id="パス_133" data-name="パス 133" d="M489.944,201.082a2.635,2.635,0,1,1-2.27-2.957A2.635,2.635,0,0,1,489.944,201.082Z" fill="#fff"/>
          </g>
          <g id="グループ_134" data-name="グループ 134">
            <path id="パス_134" data-name="パス 134" d="M472.506,155.6a2.189,2.189,0,1,1-1.885-2.456A2.189,2.189,0,0,1,472.506,155.6Z" fill="#fff"/>
          </g>
          <g id="グループ_135" data-name="グループ 135">
            <path id="パス_135" data-name="パス 135" d="M426.045,125.791a1.075,1.075,0,1,1-.926-1.206A1.075,1.075,0,0,1,426.045,125.791Z" fill="#fff"/>
          </g>
          <g id="グループ_136" data-name="グループ 136">
            <path id="パス_136" data-name="パス 136" d="M430.178,66.372a.842.842,0,1,1-.725-.944A.843.843,0,0,1,430.178,66.372Z" fill="#fff"/>
          </g>
        </g>
        <g id="グループ_140" data-name="グループ 140">
          <g id="グループ_138" data-name="グループ 138">
            <path id="パス_137" data-name="パス 137" d="M532.047,200.355a1.164,1.164,0,1,1-1-1.306A1.164,1.164,0,0,1,532.047,200.355Z" fill="#fff"/>
          </g>
          <g id="グループ_139" data-name="グループ 139">
            <path id="パス_138" data-name="パス 138" d="M525.1,108.107a1.51,1.51,0,1,1-1.3-1.694A1.511,1.511,0,0,1,525.1,108.107Z" fill="#fff"/>
          </g>
        </g>
        <g id="グループ_144" data-name="グループ 144">
          <g id="グループ_141" data-name="グループ 141">
            <path id="パス_139" data-name="パス 139" d="M545.221,315.306a.846.846,0,1,1-.728-.949A.845.845,0,0,1,545.221,315.306Z" fill="#fff"/>
          </g>
          <g id="グループ_142" data-name="グループ 142">
            <path id="パス_140" data-name="パス 140" d="M579.154,259.464a3,3,0,1,1-2.584-3.365A3,3,0,0,1,579.154,259.464Z" fill="#fff"/>
          </g>
          <g id="グループ_143" data-name="グループ 143">
            <path id="パス_141" data-name="パス 141" d="M524.3,203.619a.867.867,0,1,1-.747-.973A.867.867,0,0,1,524.3,203.619Z" fill="#fff"/>
          </g>
        </g>
        <g id="グループ_150" data-name="グループ 150">
          <g id="グループ_145" data-name="グループ 145">
            <path id="パス_142" data-name="パス 142" d="M98.88,168.759a1.514,1.514,0,1,1-1.305-1.7A1.515,1.515,0,0,1,98.88,168.759Z" fill="#fff"/>
          </g>
          <g id="グループ_146" data-name="グループ 146">
            <path id="パス_143" data-name="パス 143" d="M107.608,85.516a.812.812,0,1,1-.7-.911A.812.812,0,0,1,107.608,85.516Z" fill="#fff"/>
          </g>
          <g id="グループ_147" data-name="グループ 147">
            <path id="パス_144" data-name="パス 144" d="M192,66.106a1.641,1.641,0,1,1-1.413-1.841A1.64,1.64,0,0,1,192,66.106Z" fill="#fff"/>
          </g>
          <g id="グループ_148" data-name="グループ 148">
            <path id="パス_145" data-name="パス 145" d="M218.1,75.1a2.614,2.614,0,1,1-2.251-2.932A2.614,2.614,0,0,1,218.1,75.1Z" fill="#fff"/>
          </g>
          <g id="グループ_149" data-name="グループ 149">
            <path id="パス_146" data-name="パス 146" d="M269.078,70.344a2.549,2.549,0,1,1-2.2-2.859A2.549,2.549,0,0,1,269.078,70.344Z" fill="#fff"/>
          </g>
        </g>
        <g id="グループ_156" data-name="グループ 156">
          <g id="グループ_151" data-name="グループ 151">
            <path id="パス_147" data-name="パス 147" d="M78.168,180.278a2.429,2.429,0,1,1-2.092-2.724A2.429,2.429,0,0,1,78.168,180.278Z" fill="#fff"/>
          </g>
          <g id="グループ_152" data-name="グループ 152">
            <path id="パス_148" data-name="パス 148" d="M147.815,128.691a1.124,1.124,0,1,1-.968-1.261A1.125,1.125,0,0,1,147.815,128.691Z" fill="#fff"/>
          </g>
          <g id="グループ_153" data-name="グループ 153">
            <path id="パス_149" data-name="パス 149" d="M152.14,39.4a1.219,1.219,0,1,1-1.05-1.368A1.218,1.218,0,0,1,152.14,39.4Z" fill="#fff"/>
          </g>
          <g id="グループ_154" data-name="グループ 154">
            <path id="パス_150" data-name="パス 150" d="M178.8,39.237a1.818,1.818,0,1,1-1.565-2.039A1.818,1.818,0,0,1,178.8,39.237Z" fill="#fff"/>
          </g>
          <g id="グループ_155" data-name="グループ 155">
            <path id="パス_151" data-name="パス 151" d="M260.949,45.324a.517.517,0,1,1-.445-.581A.518.518,0,0,1,260.949,45.324Z" fill="#fff"/>
          </g>
        </g>
        <g id="グループ_162" data-name="グループ 162">
          <g id="グループ_157" data-name="グループ 157">
            <path id="パス_152" data-name="パス 152" d="M297.13,88.649a1.513,1.513,0,1,1-1.3-1.7A1.513,1.513,0,0,1,297.13,88.649Z" fill="#fff"/>
          </g>
          <g id="グループ_158" data-name="グループ 158">
            <path id="パス_153" data-name="パス 153" d="M276.944,38.852a.481.481,0,1,1-.414-.54A.481.481,0,0,1,276.944,38.852Z" fill="#fff"/>
          </g>
          <g id="グループ_159" data-name="グループ 159">
            <path id="パス_154" data-name="パス 154" d="M187.276,71.387a2.968,2.968,0,1,1-2.556-3.33A2.967,2.967,0,0,1,187.276,71.387Z" fill="#fff"/>
          </g>
          <g id="グループ_160" data-name="グループ 160">
            <path id="パス_155" data-name="パス 155" d="M200.324,129.675a3.006,3.006,0,1,1-2.588-3.372A3.006,3.006,0,0,1,200.324,129.675Z" fill="#fff"/>
          </g>
          <g id="グループ_161" data-name="グループ 161">
            <path id="パス_156" data-name="パス 156" d="M131.281,145.774a1.671,1.671,0,1,1-1.439-1.874A1.672,1.672,0,0,1,131.281,145.774Z" fill="#fff"/>
          </g>
        </g>
        <g id="グループ_170" data-name="グループ 170">
          <g id="グループ_163" data-name="グループ 163">
            <path id="パス_157" data-name="パス 157" d="M81.568,180.237a2.445,2.445,0,1,1-2.106-2.743A2.445,2.445,0,0,1,81.568,180.237Z" fill="#fff"/>
          </g>
          <g id="グループ_164" data-name="グループ 164">
            <path id="パス_158" data-name="パス 158" d="M113.3,92.62a2.116,2.116,0,1,1-1.822-2.373A2.116,2.116,0,0,1,113.3,92.62Z" fill="#fff"/>
          </g>
          <g id="グループ_165" data-name="グループ 165">
            <path id="パス_159" data-name="パス 159" d="M131.183,59.315a1.635,1.635,0,1,1-1.409-1.834A1.635,1.635,0,0,1,131.183,59.315Z" fill="#fff"/>
          </g>
          <g id="グループ_166" data-name="グループ 166">
            <path id="パス_160" data-name="パス 160" d="M169.839,41.913a1.228,1.228,0,1,1-1.058-1.377A1.229,1.229,0,0,1,169.839,41.913Z" fill="#fff"/>
          </g>
          <g id="グループ_167" data-name="グループ 167">
            <path id="パス_161" data-name="パス 161" d="M218.224,53.064a1.314,1.314,0,1,1-1.131-1.473A1.313,1.313,0,0,1,218.224,53.064Z" fill="#fff"/>
          </g>
          <g id="グループ_168" data-name="グループ 168">
            <path id="パス_162" data-name="パス 162" d="M255.91,46.865a1.8,1.8,0,1,1-1.551-2.021A1.8,1.8,0,0,1,255.91,46.865Z" fill="#fff"/>
          </g>
          <g id="グループ_169" data-name="グループ 169">
            <path id="パス_163" data-name="パス 163" d="M286.279,30a.524.524,0,1,1-.451-.587A.524.524,0,0,1,286.279,30Z" fill="#fff"/>
          </g>
        </g>
        <g id="グループ_178" data-name="グループ 178">
          <g id="グループ_171" data-name="グループ 171">
            <path id="パス_164" data-name="パス 164" d="M30.46,406.461a1.655,1.655,0,1,1-1.425-1.856A1.655,1.655,0,0,1,30.46,406.461Z" fill="#fff"/>
          </g>
          <g id="グループ_172" data-name="グループ 172">
            <path id="パス_165" data-name="パス 165" d="M48.146,362.789a2.716,2.716,0,1,1-2.339-3.046A2.717,2.717,0,0,1,48.146,362.789Z" fill="#fff"/>
          </g>
          <g id="グループ_173" data-name="グループ 173">
            <path id="パス_166" data-name="パス 166" d="M40.127,334.687A1.769,1.769,0,1,1,38.6,332.7,1.77,1.77,0,0,1,40.127,334.687Z" fill="#fff"/>
          </g>
          <g id="グループ_174" data-name="グループ 174">
            <path id="パス_167" data-name="パス 167" d="M45.484,291.261a.475.475,0,1,1-.409-.533A.474.474,0,0,1,45.484,291.261Z" fill="#fff"/>
          </g>
          <g id="グループ_175" data-name="グループ 175">
            <path id="パス_168" data-name="パス 168" d="M121.622,236.663a.648.648,0,1,1-.558-.727A.647.647,0,0,1,121.622,236.663Z" fill="#fff"/>
          </g>
          <g id="グループ_176" data-name="グループ 176">
            <path id="パス_169" data-name="パス 169" d="M91.362,150.83a1.532,1.532,0,1,1-1.319-1.719A1.533,1.533,0,0,1,91.362,150.83Z" fill="#fff"/>
          </g>
          <g id="グループ_177" data-name="グループ 177">
            <path id="パス_170" data-name="パス 170" d="M143.153,90.934a1.684,1.684,0,1,1-1.451-1.889A1.685,1.685,0,0,1,143.153,90.934Z" fill="#fff"/>
          </g>
        </g>
        <g id="グループ_182" data-name="グループ 182">
          <g id="グループ_179" data-name="グループ 179">
            <path id="パス_171" data-name="パス 171" d="M267.879,510.26a1.252,1.252,0,1,1-1.078-1.4A1.251,1.251,0,0,1,267.879,510.26Z" fill="#fff"/>
          </g>
          <g id="グループ_180" data-name="グループ 180">
            <path id="パス_172" data-name="パス 172" d="M326.413,518.055a1.854,1.854,0,1,1-1.6-2.08A1.855,1.855,0,0,1,326.413,518.055Z" fill="#fff"/>
          </g>
          <g id="グループ_181" data-name="グループ 181">
            <path id="パス_173" data-name="パス 173" d="M380.428,466.557a1.247,1.247,0,1,1-1.074-1.4A1.247,1.247,0,0,1,380.428,466.557Z" fill="#fff"/>
          </g>
        </g>
      </g>
      <g id="_綫6_x5F__" data-name="ﾍｼｲ綫6_x5F_ｸｴﾖﾆ">
        <path id="パス_174" data-name="パス 174" d="M261.4,239.7c-32.1,16.177-65.923,24.984-95.233,24.8-29.845-.189-53.344-10.175-64.456-27.437-8.015-12.453-9.278-28.7-4.586-46.021,4.959-18.3,16.8-37.669,34.239-56.016,18.13-19.072,41.619-36.21,67.93-49.56L200,85.11c25.268-12.733,51.29-20.987,75.252-23.868,22.98-2.764,43.438-.574,59.162,6.334,15.441,6.784,26.643,17.5,30.705,31.828,5.676,20.028-.887,45.953-19.3,71.378-18.232,25.18-46.819,48.924-78.873,66.041C265.117,237.8,263.25,238.77,261.4,239.7ZM200.112,85.333l-.706.357c-52.545,26.663-91.523,67.41-101.919,105.772-4.674,17.246-3.049,32.558,4.927,44.95,11.064,17.188,33.546,26.757,63.3,26.946,29.271.184,63.052-8.613,95.119-24.772,1.849-.932,3.714-1.9,5.544-2.877,32.021-17.1,59.685-40.366,77.895-65.517,18.363-25.361,25.363-50.317,19.708-70.27-4.04-14.258-14.3-25.364-29.672-32.117C301.551,53.413,250.128,60.129,200.112,85.333Z" fill="#fff"/>
        <path id="パス_175" data-name="パス 175" d="M82,428.681c-18.824-28.277-23.458-63.339-13.4-101.395,18.363-69.492,80.857-136.947,167.171-180.442.827-.417,1.647-.827,2.479-1.24,60.546-30.025,122.8-43.108,176.294-38.209l.041-.12a264.557,264.557,0,0,0-47.6.117,332.9,332.9,0,0,0-62.915,12.1,401.577,401.577,0,0,0-65.935,25.888c-.834.414-1.653.823-2.482,1.241-43.158,21.748-81.5,50.349-110.893,82.711-28.178,31.028-47.684,64.878-56.407,97.89-10.075,38.127-5.429,73.259,13.436,101.6" fill="#fff"/>
        <path id="パス_176" data-name="パス 176" d="M498.179,151.958a92.092,92.092,0,0,0-6.984-17.219q-.289.661-.608,1.312a97.868,97.868,0,0,1,6.459,16.428" fill="#fff"/>
        <g id="グループ_183" data-name="グループ 183">
          <path id="パス_177" data-name="パス 177" d="M436.5,116.844c-6.173-21.183-21.526-37.638-44.4-47.585-22.131-9.625-50.462-12.83-81.931-9.268-32.862,3.719-68.36,14.819-102.656,32.1l-.859.434c-35.655,18.083-67.4,41.45-91.8,67.576C91.42,185.2,75.491,211.918,68.793,237.377c-4.674,17.767-4.654,34.408-.076,49.088l.534-1.172c-4.5-14.344-4.777-30.516-.216-47.851,14.013-53.268,66.791-108.711,137.736-144.691l.859-.435C275.311,58.21,345.959,49.463,392.005,69.488c22.8,9.916,37.639,26.126,43.791,47.236,8.256,28.326-.343,63.571-25.061,98.9-17.081,24.41-40.527,47.428-67.981,67.054l.832.824c27.552-19.858,51.19-43.248,68.258-67.64C436.606,180.469,444.781,145.245,436.5,116.844Z" fill="#fff"/>
        </g>
        <path id="パス_178" data-name="パス 178" d="M552.558,187.28a151.23,151.23,0,0,0-33.4-50.572c-14.89-15.054-32.99-27.587-53.8-37.329q-5.992-2.806-12.257-5.257c.1.133.21.264.314.4q6.043,2.345,11.858,5.054c41.11,19.252,72.113,50.2,87.039,87.746A144.483,144.483,0,0,1,562.5,245.656c.051.06.1.123.149.183A143.719,143.719,0,0,0,552.558,187.28Z" fill="#fff"/>
        <path id="パス_179" data-name="パス 179" d="M392.793,78.919c-41.943-5.712-86.7-2.791-130.346,8.986-45.53,12.286-87.829,33.569-122.634,61.926a275.666,275.666,0,0,0-39.827,39.585,221.678,221.678,0,0,0-27.808,43.4c-14.452,30.007-20.231,61.659-16.394,91.535a139.558,139.558,0,0,0,25.679,64.515,160.911,160.911,0,0,0,25.561,27.668l.1-.366c-28.885-25.019-46.568-56.753-51.079-91.844-7.827-60.881,24.164-124.771,83.83-173.4C208.239,95.194,306.251,67.9,393,79.725c21.541,2.935,41.789,7.572,60.414,14.794-.1-.133-.209-.264-.314-.4A262.178,262.178,0,0,0,392.793,78.919Z" fill="#fff"/>
        <path id="パス_180" data-name="パス 180" d="M561.3,261.62a155.9,155.9,0,0,0,1.346-15.781c-.05-.06-.1-.123-.149-.183" fill="#fff"/>
        <g id="グループ_184" data-name="グループ 184">
          <path id="パス_181" data-name="パス 181" d="M231.6,536.453c-55.3-4.336-98.627-25.493-122.824-61.193C88,444.6,82.639,406.763,93.274,365.828a196.852,196.852,0,0,1,9.15-26.87l-.157-.161a194.373,194.373,0,0,0-9.235,26.968c-5.2,20-6.578,39.458-4.1,57.818A120.062,120.062,0,0,0,108.57,475.4c24.242,35.766,68.088,57.854,123.462,62.2a279.69,279.69,0,0,0,52.633-1.017l-.385-1.153A279.435,279.435,0,0,1,231.6,536.453Z" fill="#fff"/>
          <path id="パス_182" data-name="パス 182" d="M565.458,246.8a118.416,118.416,0,0,0-27.137-48.446c-12.465-13.505-28.194-24.518-46.752-32.732-30.269-13.4-67.216-18.838-106.843-15.733A320.369,320.369,0,0,0,322.3,161.314a381.445,381.445,0,0,0-63.076,24.377l.006.274c82.566-40.448,169.236-48,232.233-20.115,37.981,16.812,63.484,44.828,73.75,81.018a124.5,124.5,0,0,1,4.636,32.493l.321.073A127.167,127.167,0,0,0,565.458,246.8Z" fill="#fff"/>
        </g>
        <path id="パス_183" data-name="パス 183" d="M405.332,519.254c.04.281.086.573.124.85,1.892,13.722,1.261,21.283-2.005,22.929a2.784,2.784,0,0,1-2.655.148c-17.751-6.542-67-103.418-116.2-224.573-26.4-65-48.733-126.9-62.763-175.679C215,119.186,209.071,99.307,207.061,85.39c-2.077-14.381-1.64-22.084,1.761-23.8a3.935,3.935,0,0,1,3.206.065c8.77,3.359,25.886,28.847,48.194,71.769,15.182,29.213,31.886,64.824,48.639,103.559l.227-.107c-16.755-38.738-33.46-74.352-48.644-103.567-22.337-42.976-39.5-68.506-48.327-71.887a4.175,4.175,0,0,0-3.434-.042c-6.838,3.445-3.847,32.264,10.236,81.234,14.033,48.792,36.408,111.964,62.813,176.976,49.23,121.212,100.649,217.2,118.419,223.87a4.082,4.082,0,0,0,3.348.025c3.454-1.74,4.111-10.095,2.077-24.315Z" fill="#fff"/>
        <path id="パス_184" data-name="パス 184" d="M253.314,413.268c-25.061,5.906-49.745,8.642-73.058,7.75-50.237-1.923-87.838-19.35-108.316-49.875-16.141-24.062-21.006-53.713-12.378-86.6,16.692-63.623,77.832-128.73,159.561-169.915.773-.39,1.53-.768,2.307-1.154,80.049-39.727,161.741-48.611,218.527-23.765,29.8,13.039,48.959,35.038,57.089,62.768,5.874,20.032,5.248,42.11-1.679,65.268l.883.375c7.048-23.56,7.812-46.1,1.929-66.164-8.152-27.8-28.25-49.406-58.121-62.476C413.1,77.687,379.222,73.37,342.084,77c-38.863,3.8-80.622,16.333-120.765,36.255-.777.386-1.535.765-2.308,1.155-41.265,20.794-77.961,47.945-106.12,78.518-27.032,29.35-45.556,61.009-53.571,91.556-8.646,32.958-4.663,63.129,11.519,87.251,10.471,15.608,25.586,27.9,44.928,36.533,18.553,8.281,40.4,12.956,64.93,13.9,23.358.894,48.19-1.651,73.4-7.364Z" fill="#fff"/>
        <path id="パス_185" data-name="パス 185" d="M372.668,233.98C281.821,137.735,187.023,79.38,152.223,96.917a22.148,22.148,0,0,0-9.149,8.532c-5.586,9.309-5.866,23.518-.833,42.231,4.829,17.953,14.314,39.268,28.189,63.353,13.806,23.961,31.215,49.379,51.745,75.548q10.343,13.182,21.421,26.171l.141-.152c-29.253-34.351-54.375-69.21-73.09-101.692-13.865-24.066-23.341-45.361-28.165-63.293-5.015-18.644-4.744-32.788.806-42.038a21.909,21.909,0,0,1,9.047-8.437c34.078-17.173,129.888,44.841,218.211,138.414,10.554,11.181,21.725,22.569,31.44,33.954.186-.409.47-2.814.654-3.223C393.08,255.1,383.035,244.964,372.668,233.98Z" fill="#fff"/>
        <path id="パス_186" data-name="パス 186" d="M401.986,269.508c.186-.409.47-2.814.654-3.223Z" fill="#fff"/>
        <path id="パス_187" data-name="パス 187" d="M435.077,159.448a433.962,433.962,0,0,0-95.123-39.824c-38.088-10.851-76.819-15.911-112.005-14.632-34.108,1.239-65.039,8.4-89.451,20.7-27.6,13.909-46.586,34.182-54.9,58.628-6.273,18.433-6.557,38.749-.847,60.383,5.59,21.174,16.653,42.657,32.883,63.853,27.205,35.529,66.948,67.407,114.132,91.968l-.094-.331c-47.059-24.529-86.7-56.341-113.84-91.789-33.124-43.26-44.488-87.3-32-124,8.3-24.384,27.24-44.607,54.781-58.486,50.321-25.357,126.464-25.832,202.174-4.262,62.977,17.942,121.6,50.009,164.789,90.525.027-.516.057-1.03.084-1.546A374.428,374.428,0,0,0,435.077,159.448Z" fill="#fff"/>
        <path id="パス_188" data-name="パス 188" d="M511.623,216.313c-1.95-1.913-3.947-3.8-5.965-5.683-.027.516-.057,1.03-.084,1.546,1.681,1.577,3.347,3.163,4.981,4.766" fill="#fff"/>
        <path id="パス_189" data-name="パス 189" d="M485.964,146.122a178.116,178.116,0,0,0-6.653-18.618l-.153.062" fill="#fff"/>
        <path id="パス_190" data-name="パス 190" d="M448.858,81.278a125.751,125.751,0,0,0-48.445-30.741c-18.837-6.571-39.346-8.794-60.963-6.6-22.907,2.324-46.516,9.938-70.091,21.818-38.01,19.154-73.893,48.969-103.818,87.014C134.5,192.238,111.685,238.078,99.6,285.3a307.526,307.526,0,0,0-9.325,59.124A241.461,241.461,0,0,0,93.059,398c5.65,33.243,18.854,62.048,38.167,83.3a122.415,122.415,0,0,0,53.114,34.509c21.408,7,45.168,8.48,70.614,4.4,3.029-.485,6.061-1.056,9.093-1.693l-.308-.188q-4.413.921-8.821,1.635c-49.619,7.951-93.5-5.815-123.506-38.834-39.872-43.872-51.259-116.2-31.121-194.874,23.971-93.655,90.664-179.984,169.665-219.8C293.5,54.594,316.6,46.508,339.476,44.185c42.487-4.311,81.26,8.943,109.207,37.27a147.021,147.021,0,0,1,30.475,46.111l.153-.062A146.241,146.241,0,0,0,448.858,81.278Z" fill="#fff"/>
        <g id="グループ_185" data-name="グループ 185">
          <path id="パス_191" data-name="パス 191" d="M374.241,480.834c-15.318,31.8-34.4,54.673-55.879,66.364-.591.321-1.19.639-1.782.942-20.363,10.446-40.482,8.493-59.949-2.913-23.044-13.5-42.365-40.251-57.671-79.369-10.6-27.1-18.766-58.492-23.577-92.507l-2.468,1.634c4.684,33.57,12.511,64.7,22.927,91.324a223.62,223.62,0,0,0,27.367,49.758c9.99,13.73,20.879,24.1,32.362,30.828a62.577,62.577,0,0,0,29.705,9c10.426.345,20.995-2.191,31.415-7.536.594-.3,1.195-.622,1.788-.945,21.54-11.727,40.682-34.675,56.032-66.574Z" fill="#fff"/>
          <path id="パス_192" data-name="パス 192" d="M186.116,174.53c2.592-9.72,5.5-19.162,8.718-28.264C212.448,96.513,237.15,60.423,265.179,46.3a67.531,67.531,0,0,1,10.714-4.319c17.447-5.3,34.859-2.373,51.747,8.686,13.568,8.885,26.316,22.89,37.552,41.114l.191-.163c-11.25-18.24-24.018-32.262-37.609-41.162a67.7,67.7,0,0,0-25.441-10.422,56.917,56.917,0,0,0-26.512,1.707,67.743,67.743,0,0,0-10.754,4.334c-28.087,14.154-53.282,49.394-70.918,99.21q-5,14.116-9.178,29.048Z" fill="#fff"/>
        </g>
      </g>
      <g id="_綫10" data-name="ﾍｼｲ綫10">
        <path id="パス_193" data-name="パス 193" d="M247.008,213.7c-34.461,10.231-69.308,12.9-98.121,7.527-29.339-5.475-50.7-19.468-58.572-38.425-5.682-13.677-4.045-29.895,3.643-46.1,8.124-17.131,23.209-34.1,43.625-49.062C158.8,72.078,184.96,59.374,213.221,50.9l.758-.226c27.125-8.053,54.2-11.564,78.291-10.153,23.106,1.353,42.851,7.135,57.1,16.72C363.367,66.653,372.493,79.18,373.95,94c2.037,20.717-9.017,45.069-31.641,66.828-22.406,21.55-54.749,39.852-89.329,51.016C251,212.487,248.995,213.11,247.008,213.7ZM214.05,50.912l-.758.226C156.854,68.066,111.271,101.26,94.24,137.172c-7.656,16.144-8.771,31.5-3.117,45.111,7.843,18.877,28.272,32.28,57.525,37.739,28.775,5.37,63.581,2.7,98-7.521,1.985-.589,3.993-1.211,5.966-1.848,34.545-11.154,65.9-29.15,88.274-50.674,22.568-21.705,33.88-45.026,31.85-65.665-1.449-14.749-9.578-27.5-23.51-36.867C319.541,37.475,267.742,34.971,214.05,50.912Z" fill="#fff"/>
        <path id="パス_194" data-name="パス 194" d="M36.951,367.889C23.437,336.724,25.09,301.4,41.732,265.725c30.389-65.137,103.849-120.449,196.505-147.957.888-.264,1.767-.522,2.66-.781,64.909-18.819,128.495-20.662,180.275-6.359l.061-.11a264.5,264.5,0,0,0-46.862-8.321,332.843,332.843,0,0,0-64.063.758,401.61,401.61,0,0,0-69.48,13.792c-.894.259-1.773.517-2.662.781-46.329,13.755-89.138,35.107-123.8,61.748-33.231,25.543-58.427,55.4-72.863,86.343-16.672,35.737-18.327,71.137-4.783,102.37" fill="#fff"/>
        <path id="パス_195" data-name="パス 195" d="M495.59,169.31a91.973,91.973,0,0,0-3.822-18.184c-.268.4-.543.795-.83,1.184a97.848,97.848,0,0,1,3.445,17.311" fill="#fff"/>
        <g id="グループ_186" data-name="グループ 186">
          <path id="パス_196" data-name="パス 196" d="M441.115,123.821c-2.322-21.942-14.515-40.858-35.263-54.7-20.075-13.4-47.39-21.57-78.991-23.643-33-2.163-69.9,2.47-106.721,13.4l-.922.275C180.923,70.63,145.54,88,116.894,109.388c-27.514,20.543-47.927,44.018-59.031,67.887-7.749,16.656-10.678,33.038-8.776,48.3l.735-1.059c-1.89-14.915.706-30.88,8.267-47.132,23.233-49.941,85-95.152,161.2-117.989l.923-.275c72.654-21.571,143.734-17.658,185.5,10.211,20.684,13.8,32.413,32.383,34.726,54.25,3.105,29.34-11.6,62.5-42.192,92.888-21.136,21-48.291,39.494-78.788,53.944l.673.958c30.635-14.66,58.044-33.491,79.165-54.472C429.939,186.457,444.227,153.239,441.115,123.821Z" fill="#fff"/>
        </g>
        <path id="パス_197" data-name="パス 197" d="M404.817,78.749c-40.265-13.055-84.834-18.114-129.874-14.258-46.987,4.023-92.388,17.471-131.668,39.211a275.568,275.568,0,0,0-46.212,31.9A221.624,221.624,0,0,0,62,173.382c-19.541,26.97-30.839,57.1-32.357,87.18a139.541,139.541,0,0,0,13.838,68.045,160.89,160.89,0,0,0,20.253,31.76l.163-.342c-23.994-29.743-35.773-64.108-33.993-99.444,3.088-61.3,45.9-118.513,113.236-155.8C220.3,62.057,321.6,52.571,404.879,79.579c20.68,6.707,39.785,14.859,56.835,25.268-.078-.15-.159-.3-.238-.447A262.17,262.17,0,0,0,404.817,78.749Z" fill="#fff"/>
        <path id="パス_198" data-name="パス 198" d="M208.289,383.084c-25.712,1.371-50.489-.311-73.275-5.321-49.1-10.8-83.019-34.611-97.762-68.283C25.631,282.939,26.1,252.9,40.419,222.06c27.7-59.658,99.415-112.9,187.15-138.946.829-.246,1.641-.485,2.474-.726,85.823-24.911,167.8-19.176,219.28,15.341,27.018,18.115,41.973,43.161,45.06,71.892,2.231,20.757-2.3,42.374-13.22,63.939l.8.524c11.112-21.938,15.86-43.986,13.625-64.774-3.1-28.807-19.046-53.631-46.128-71.788-24.439-16.386-57.017-26.639-94.21-29.652-38.92-3.152-82.24,1.785-125.278,14.278-.834.242-1.646.48-2.477.727-44.3,13.151-85.224,33.369-118.356,58.467-31.805,24.094-55.648,51.969-68.949,80.612-14.35,30.9-15.778,61.3-4.127,87.911C43.6,327.082,56.3,341.858,73.806,353.782c16.791,11.439,37.463,19.912,61.439,25.184,22.829,5.02,47.72,6.916,73.547,5.763Z" fill="#fff"/>
        <path id="パス_199" data-name="パス 199" d="M357.529,227.789C285.178,116.966,202.224,42.733,164.866,53.824A22.161,22.161,0,0,0,154.35,60.6c-7.147,8.172-9.942,22.107-8.3,41.415,1.57,18.525,7.127,41.183,16.515,67.346,9.339,26.029,21.968,54.13,37.535,83.523q7.842,14.807,16.444,29.553l.165-.125C194,243.321,175.457,204.561,162.8,169.277c-9.381-26.143-14.933-48.78-16.5-67.283-1.632-19.238,1.142-33.11,8.243-41.23a21.92,21.92,0,0,1,10.4-6.7c36.582-10.861,119.884,67.152,190.225,174.9,8.406,12.875,17.381,26.062,24.924,38.989.256-.369.962-2.686,1.215-3.056C373.875,252.194,365.785,240.436,357.529,227.789Z" fill="#fff"/>
        <path id="パス_200" data-name="パス 200" d="M380.086,267.95c.256-.369.962-2.686,1.215-3.056Z" fill="#fff"/>
        <path id="パス_201" data-name="パス 201" d="M432.16,165.5A434.043,434.043,0,0,0,345.6,109.445c-35.562-17.43-72.783-29.274-107.638-34.252-33.788-4.825-65.5-3.263-91.7,4.517-29.629,8.8-51.908,25.384-64.427,47.968-9.441,17.03-13.322,36.974-11.536,59.277,1.748,21.829,8.829,44.933,21.045,68.671,20.478,39.788,53.942,78.2,96.025,110.74l-.033-.342C145.367,333.542,112,295.209,91.565,255.511c-24.933-48.446-28.312-93.8-9.514-127.711,12.488-22.527,34.715-39.073,64.28-47.85,54.018-16.038,129.04-3.01,199.729,31.637,58.8,28.819,110.812,70.77,146.135,118.3.119-.5.24-1,.357-1.506A374.392,374.392,0,0,0,432.16,165.5Z" fill="#fff"/>
        <path id="パス_202" data-name="パス 202" d="M497.415,235.029c-1.58-2.229-3.21-4.443-4.863-6.65-.117.5-.238,1-.357,1.506q2.064,2.775,4.058,5.573" fill="#fff"/>
        <path id="パス_203" data-name="パス 203" d="M484.6,161.4a177.984,177.984,0,0,0-3.248-19.5l-.161.034" fill="#fff"/>
        <path id="パス_204" data-name="パス 204" d="M459.577,91.007a125.742,125.742,0,0,0-42.23-38.84c-17.373-9.805-37.164-15.628-58.827-17.3-22.957-1.773-47.541,1.536-72.848,9.05-40.8,12.114-81.4,35.1-117.6,67.236C130.526,144.495,99.951,185.566,79.687,229.9A307.485,307.485,0,0,0,60.03,286.433a241.542,241.542,0,0,0-6.754,53.223c-.331,33.718,7.559,64.407,22.8,88.745a122.421,122.421,0,0,0,46.157,43.375c19.828,10.686,42.95,16.351,68.716,16.848,3.067.059,6.152.035,9.249-.055l-.27-.24q-4.506.124-8.971.046c-50.243-.969-90.987-22.293-114.668-60.108-31.465-50.244-29.854-123.442,3.91-197.3C120.39,143.039,201.327,69.9,286.134,44.717c25.277-7.5,49.44-11.371,72.367-9.6,42.578,3.287,78.389,23.2,100.873,56.034a147.042,147.042,0,0,1,21.82,50.783l.161-.034A146.256,146.256,0,0,0,459.577,91.007Z" fill="#fff"/>
        <path id="パス_205" data-name="パス 205" d="M542.014,209.877a151.818,151.818,0,0,0-23.079-51.858c-11.986-17.455-27.578-33-46.328-46.273q-5.4-3.825-11.131-7.346c.079.149.16.3.238.447q5.532,3.376,10.774,7.075c35.882,25.408,60.487,59.932,69.3,98.055Z" fill="#fff"/>
        <path id="パス_206" data-name="パス 206" d="M165.087,500.471C111.435,486.4,72.541,457.9,55.054,418.478c-15.016-33.853-13.586-72.045,4.136-110.447a196.756,196.756,0,0,1,13.768-24.823l-.127-.186a194.5,194.5,0,0,0-13.868,24.9C50.3,326.693,45.5,345.593,44.678,364.1a120.054,120.054,0,0,0,10.147,54.477c17.518,39.5,56.756,69.006,110.484,83.094A279.714,279.714,0,0,0,217.288,510l-.174-1.2A279.524,279.524,0,0,1,165.087,500.471Z" fill="#fff"/>
        <path id="パス_207" data-name="パス 207" d="M273.4,513.754a98.683,98.683,0,0,1-24.828,12.669c-.639.211-1.285.417-1.921.611-21.892,6.671-41.346,1.184-58.483-13.492-20.287-17.371-34.561-47.123-42.691-88.334-5.632-28.547-8.1-60.892-6.809-95.221l-2.718,1.17c-1.34,33.869.845,65.9,6.378,93.943a223.594,223.594,0,0,0,18.114,53.82c7.4,15.284,16.277,27.42,26.387,36.076a62.567,62.567,0,0,0,27.639,14.124c10.2,2.187,21.051,1.565,32.253-1.848.638-.195,1.286-.4,1.927-.614a98.918,98.918,0,0,0,24.9-12.709Z" fill="#fff"/>
        <path id="パス_208" data-name="パス 208" d="M337.678,528.889c-1.025,5.063-2.554,7.9-4.628,8.515a2.782,2.782,0,0,1-2.639-.325C314.1,527.495,282.8,423.424,255.849,295.466c-14.462-68.653-25.472-133.523-30.633-184.021-2.512-24.577-4.825-45.193-4.337-59.245.505-14.522,2.3-22.026,5.951-23.11a3.94,3.94,0,0,1,3.144.632c8.036,4.861,20.363,32.979,34.711,79.175,9.764,31.441,19.892,69.449,29.515,110.541l.242-.065c-9.623-41.1-19.753-79.106-29.518-110.55C250.558,62.569,238.191,34.4,230.1,29.509a4.175,4.175,0,0,0-3.372-.65c-7.341,2.179-9.5,31.072-4.323,81.762,5.162,50.507,15.987,116.645,30.451,185.307,26.968,128.018,60.56,231.6,76.867,241.314a4.086,4.086,0,0,0,3.29.618c2.163-.642,3.784-3.684,4.865-8.941Z" fill="#fff"/>
      </g>
      <g id="_綫11" data-name="ﾍｼｲ綫11">
        <path id="パス_209" data-name="パス 209" d="M157.347,381.026a3.812,3.812,0,1,0,4.379-3.142A3.811,3.811,0,0,0,157.347,381.026Z" fill="#fff"/>
        <path id="パス_210" data-name="パス 210" d="M72.221,286.843a2.707,2.707,0,1,1-2.232-3.11A2.706,2.706,0,0,1,72.221,286.843Z" fill="#fff"/>
        <path id="パス_211" data-name="パス 211" d="M384.734,267.738a3.442,3.442,0,1,1-2.838-3.955A3.442,3.442,0,0,1,384.734,267.738Z" fill="#fff"/>
        <path id="パス_212" data-name="パス 212" d="M255.843,274.967a3.442,3.442,0,1,1-2.837-3.955A3.44,3.44,0,0,1,255.843,274.967Z" fill="#fff"/>
        <path id="パス_213" data-name="パス 213" d="M374.114,101.917a3.194,3.194,0,1,1-2.634-3.67A3.194,3.194,0,0,1,374.114,101.917Z" fill="#fff"/>
        <path id="パス_214" data-name="パス 214" d="M130.016,315.12a3.194,3.194,0,1,1-2.634-3.671A3.194,3.194,0,0,1,130.016,315.12Z" fill="#fff"/>
        <path id="パス_215" data-name="パス 215" d="M177.43,374.516a3.194,3.194,0,1,1-2.633-3.67A3.194,3.194,0,0,1,177.43,374.516Z" fill="#fff"/>
        <path id="パス_216" data-name="パス 216" d="M477.437,113.624a1.685,1.685,0,1,1-1.389-1.935A1.685,1.685,0,0,1,477.437,113.624Z" fill="#fff"/>
        <path id="パス_217" data-name="パス 217" d="M423.1,84.907a1.684,1.684,0,1,1-1.389-1.936A1.684,1.684,0,0,1,423.1,84.907Z" fill="#fff"/>
        <path id="パス_218" data-name="パス 218" d="M71.9,209.754a1.685,1.685,0,1,1-1.389-1.936A1.684,1.684,0,0,1,71.9,209.754Z" fill="#fff"/>
        <path id="パス_219" data-name="パス 219" d="M339.543,529.192a1.684,1.684,0,1,1-1.389-1.936A1.684,1.684,0,0,1,339.543,529.192Z" fill="#fff"/>
        <path id="パス_220" data-name="パス 220" d="M235.858,521.826A1.586,1.586,0,1,1,234.55,520,1.586,1.586,0,0,1,235.858,521.826Z" fill="#fff"/>
        <path id="パス_221" data-name="パス 221" d="M219.754,500.8a1.586,1.586,0,1,1-1.308-1.822A1.586,1.586,0,0,1,219.754,500.8Z" fill="#fff"/>
        <path id="パス_222" data-name="パス 222" d="M144.892,396.4a1.882,1.882,0,1,1-1.552-2.163A1.883,1.883,0,0,1,144.892,396.4Z" fill="#fff"/>
        <path id="パス_223" data-name="パス 223" d="M256.57,413.9a2.4,2.4,0,1,1-1.98-2.76A2.4,2.4,0,0,1,256.57,413.9Z" fill="#fff"/>
        <path id="パス_224" data-name="パス 224" d="M290.443,290.66a2.2,2.2,0,1,1-1.814-2.527A2.2,2.2,0,0,1,290.443,290.66Z" fill="#fff"/>
        <path id="パス_225" data-name="パス 225" d="M213.258,181.783a2.834,2.834,0,1,1-2.338-3.256A2.835,2.835,0,0,1,213.258,181.783Z" fill="#fff"/>
        <path id="パス_226" data-name="パス 226" d="M301.675,487.266a2.835,2.835,0,1,1-2.338-3.257A2.835,2.835,0,0,1,301.675,487.266Z" fill="#fff"/>
        <path id="パス_227" data-name="パス 227" d="M295.028,495.315a3,3,0,1,1-2.472-3.445A3,3,0,0,1,295.028,495.315Z" fill="#fff"/>
        <path id="パス_228" data-name="パス 228" d="M487.771,146.338a1.7,1.7,0,1,1-1.4-1.948A1.7,1.7,0,0,1,487.771,146.338Z" fill="#fff"/>
        <path id="パス_229" data-name="パス 229" d="M109.732,417.245a1.679,1.679,0,1,1-1.384-1.928A1.678,1.678,0,0,1,109.732,417.245Z" fill="#fff"/>
        <path id="パス_230" data-name="パス 230" d="M225.272,74.214a4.98,4.98,0,1,1-4.106-5.722A4.981,4.981,0,0,1,225.272,74.214Z" fill="#fff"/>
        <path id="パス_231" data-name="パス 231" d="M417.236,107.712a1.346,1.346,0,1,1-1.11-1.547A1.346,1.346,0,0,1,417.236,107.712Z" fill="#fff"/>
        <path id="パス_232" data-name="パス 232" d="M56.641,339.832a1.683,1.683,0,1,1-1.387-1.934A1.682,1.682,0,0,1,56.641,339.832Z" fill="#fff"/>
        <path id="パス_233" data-name="パス 233" d="M187.949,174.831a1.858,1.858,0,1,1-1.532-2.134A1.858,1.858,0,0,1,187.949,174.831Z" fill="#fff"/>
        <path id="パス_234" data-name="パス 234" d="M120.981,124.469a1.4,1.4,0,1,1,1.6-1.174A1.4,1.4,0,0,1,120.981,124.469Z" fill="#fff"/>
        <path id="パス_235" data-name="パス 235" d="M133.238,260.4a1.4,1.4,0,1,1,1.6-1.174A1.4,1.4,0,0,1,133.238,260.4Z" fill="#fff"/>
        <path id="パス_236" data-name="パス 236" d="M365.4,241.651a2.118,2.118,0,1,1,2.415-1.772A2.117,2.117,0,0,1,365.4,241.651Z" fill="#fff"/>
        <path id="パス_237" data-name="パス 237" d="M472.653,451.87a2.118,2.118,0,1,1,2.415-1.773A2.12,2.12,0,0,1,472.653,451.87Z" fill="#fff"/>
        <path id="パス_238" data-name="パス 238" d="M391.109,508.781a2.118,2.118,0,1,1,2.415-1.773A2.118,2.118,0,0,1,391.109,508.781Z" fill="#fff"/>
        <path id="パス_239" data-name="パス 239" d="M495.261,221.27a2.117,2.117,0,1,1,2.414-1.772A2.118,2.118,0,0,1,495.261,221.27Z" fill="#fff"/>
        <path id="パス_240" data-name="パス 240" d="M357,417a2.118,2.118,0,1,1,2.415-1.772A2.119,2.119,0,0,1,357,417Z" fill="#fff"/>
        <path id="パス_241" data-name="パス 241" d="M343.563,284.809a2.118,2.118,0,1,1,2.415-1.773A2.119,2.119,0,0,1,343.563,284.809Z" fill="#fff"/>
        <path id="パス_242" data-name="パス 242" d="M303.319,361.78a2.118,2.118,0,1,1,2.414-1.773A2.12,2.12,0,0,1,303.319,361.78Z" fill="#fff"/>
        <path id="パス_243" data-name="パス 243" d="M319.938,199.889a2.118,2.118,0,1,1,2.415-1.773A2.118,2.118,0,0,1,319.938,199.889Z" fill="#fff"/>
        <path id="パス_244" data-name="パス 244" d="M108.214,444.1a2.118,2.118,0,1,1,2.414-1.772A2.118,2.118,0,0,1,108.214,444.1Z" fill="#fff"/>
        <path id="パス_245" data-name="パス 245" d="M165,216.062a2.118,2.118,0,1,1,2.414-1.772A2.118,2.118,0,0,1,165,216.062Z" fill="#fff"/>
        <path id="パス_246" data-name="パス 246" d="M454.4,95.492a1.4,1.4,0,1,1,1.6-1.174A1.4,1.4,0,0,1,454.4,95.492Z" fill="#fff"/>
        <path id="パス_247" data-name="パス 247" d="M202.29,305.067a2.118,2.118,0,1,1,2.414-1.773A2.12,2.12,0,0,1,202.29,305.067Z" fill="#fff"/>
        <path id="パス_248" data-name="パス 248" d="M179.054,496.665a2.118,2.118,0,1,1,2.414-1.772A2.118,2.118,0,0,1,179.054,496.665Z" fill="#fff"/>
        <path id="パス_249" data-name="パス 249" d="M305.849,89.527a2.118,2.118,0,1,1,2.415-1.773A2.118,2.118,0,0,1,305.849,89.527Z" fill="#fff"/>
        <path id="パス_250" data-name="パス 250" d="M163.569,147.336a2.118,2.118,0,1,1,2.415-1.772A2.117,2.117,0,0,1,163.569,147.336Z" fill="#fff"/>
        <path id="パス_251" data-name="パス 251" d="M208.526,386.593a2.9,2.9,0,1,1,3.267-2.49A2.9,2.9,0,0,1,208.526,386.593Z" fill="#fff"/>
        <path id="パス_252" data-name="パス 252" d="M254.023,522.331a2.9,2.9,0,1,1,3.267-2.49A2.9,2.9,0,0,1,254.023,522.331Z" fill="#fff"/>
        <path id="パス_253" data-name="パス 253" d="M117.4,193.038a3.964,3.964,0,1,1,4.459-3.4A3.965,3.965,0,0,1,117.4,193.038Z" fill="#fff"/>
        <path id="パス_254" data-name="パス 254" d="M497,237.714a2.716,2.716,0,1,1,3.1-2.274A2.718,2.718,0,0,1,497,237.714Z" fill="#fff"/>
        <path id="パス_255" data-name="パス 255" d="M569.959,280.84a1.423,1.423,0,1,1,1.622-1.191A1.423,1.423,0,0,1,569.959,280.84Z" fill="#fff"/>
        <path id="パス_256" data-name="パス 256" d="M484.045,249.761a1.423,1.423,0,1,1,1.623-1.191A1.424,1.424,0,0,1,484.045,249.761Z" fill="#fff"/>
        <path id="パス_257" data-name="パス 257" d="M192.015,500.646a1.423,1.423,0,1,1,1.623-1.191A1.423,1.423,0,0,1,192.015,500.646Z" fill="#fff"/>
        <path id="パス_258" data-name="パス 258" d="M55.458,226.682a1.423,1.423,0,1,1,1.623-1.191A1.423,1.423,0,0,1,55.458,226.682Z" fill="#fff"/>
        <path id="パス_259" data-name="パス 259" d="M97.3,216.738a1.423,1.423,0,1,1,1.623-1.191A1.423,1.423,0,0,1,97.3,216.738Z" fill="#fff"/>
        <path id="パス_260" data-name="パス 260" d="M408.8,67a1.423,1.423,0,1,1,1.622-1.191A1.423,1.423,0,0,1,408.8,67Z" fill="#fff"/>
        <path id="パス_261" data-name="パス 261" d="M349.063,389.268a1.423,1.423,0,1,1,1.622-1.191A1.424,1.424,0,0,1,349.063,389.268Z" fill="#fff"/>
        <path id="パス_262" data-name="パス 262" d="M367.453,180.142a1.423,1.423,0,1,1,1.622-1.191A1.423,1.423,0,0,1,367.453,180.142Z" fill="#fff"/>
        <path id="パス_263" data-name="パス 263" d="M258.8,187.636a1.423,1.423,0,1,1,1.623-1.191A1.423,1.423,0,0,1,258.8,187.636Z" fill="#fff"/>
        <path id="パス_264" data-name="パス 264" d="M72.958,283.208a1.423,1.423,0,1,1,1.622-1.191A1.423,1.423,0,0,1,72.958,283.208Z" fill="#fff"/>
        <path id="パス_265" data-name="パス 265" d="M480.706,237.179a2.586,2.586,0,1,1,2.948-2.164A2.586,2.586,0,0,1,480.706,237.179Z" fill="#fff"/>
        <path id="パス_266" data-name="パス 266" d="M315.494,485.588a2.586,2.586,0,1,1,2.948-2.164A2.585,2.585,0,0,1,315.494,485.588Z" fill="#fff"/>
        <path id="パス_267" data-name="パス 267" d="M284.348,539.043a2.712,2.712,0,1,1,3.092-2.27A2.712,2.712,0,0,1,284.348,539.043Z" fill="#fff"/>
        <path id="パス_268" data-name="パス 268" d="M256.3,79.457a2.712,2.712,0,1,1,3.092-2.27A2.713,2.713,0,0,1,256.3,79.457Z" fill="#fff"/>
        <path id="パス_269" data-name="パス 269" d="M226.334,117.658a2.712,2.712,0,1,1,3.092-2.27A2.712,2.712,0,0,1,226.334,117.658Z" fill="#fff"/>
        <path id="パス_270" data-name="パス 270" d="M49.456,229.065a2.712,2.712,0,1,1,3.092-2.27A2.712,2.712,0,0,1,49.456,229.065Z" fill="#fff"/>
        <path id="パス_271" data-name="パス 271" d="M320.179,272.31a1.747,1.747,0,1,1,1.991-1.462A1.747,1.747,0,0,1,320.179,272.31Z" fill="#fff"/>
        <path id="パス_272" data-name="パス 272" d="M254.7,427.786a1.747,1.747,0,1,1,1.991-1.462A1.746,1.746,0,0,1,254.7,427.786Z" fill="#fff"/>
        <path id="パス_273" data-name="パス 273" d="M174.2,406.4a1.747,1.747,0,1,1,1.992-1.462A1.747,1.747,0,0,1,174.2,406.4Z" fill="#fff"/>
        <path id="パス_274" data-name="パス 274" d="M401.589,270.723a3.135,3.135,0,1,1,3.574-2.624A3.136,3.136,0,0,1,401.589,270.723Z" fill="#fff"/>
        <path id="パス_275" data-name="パス 275" d="M365.677,73.523a2.324,2.324,0,1,1,2.649-1.945A2.323,2.323,0,0,1,365.677,73.523Z" fill="#fff"/>
        <path id="パス_276" data-name="パス 276" d="M234.358,74.508a2.324,2.324,0,1,1,2.649-1.945A2.325,2.325,0,0,1,234.358,74.508Z" fill="#fff"/>
        <path id="パス_277" data-name="パス 277" d="M371.647,279.274a4.459,4.459,0,1,1,5.084-3.732A4.458,4.458,0,0,1,371.647,279.274Z" fill="#fff"/>
        <path id="パス_278" data-name="パス 278" d="M405.381,520.13a1.34,1.34,0,1,1,1.527-1.121A1.34,1.34,0,0,1,405.381,520.13Z" fill="#fff"/>
        <path id="パス_279" data-name="パス 279" d="M541.591,211.746a1.34,1.34,0,1,1,1.528-1.121A1.34,1.34,0,0,1,541.591,211.746Z" fill="#fff"/>
        <path id="パス_280" data-name="パス 280" d="M311.549,47.683a1.34,1.34,0,1,1,1.528-1.122A1.34,1.34,0,0,1,311.549,47.683Z" fill="#fff"/>
        <path id="パス_281" data-name="パス 281" d="M217,284.867a1.34,1.34,0,1,1,1.528-1.122A1.34,1.34,0,0,1,217,284.867Z" fill="#fff"/>
        <path id="パス_282" data-name="パス 282" d="M81.974,430.654a1.34,1.34,0,1,1,1.527-1.122A1.339,1.339,0,0,1,81.974,430.654Z" fill="#fff"/>
        <path id="パス_283" data-name="パス 283" d="M326.2,37.994a1.34,1.34,0,1,1,1.527-1.122A1.34,1.34,0,0,1,326.2,37.994Z" fill="#fff"/>
        <path id="パス_284" data-name="パス 284" d="M230.172,402.264a1.34,1.34,0,1,1,1.528-1.122A1.341,1.341,0,0,1,230.172,402.264Z" fill="#fff"/>
        <path id="パス_285" data-name="パス 285" d="M272.694,290.388a1.339,1.339,0,1,1,1.528-1.121A1.34,1.34,0,0,1,272.694,290.388Z" fill="#fff"/>
        <path id="パス_286" data-name="パス 286" d="M365.939,94.478a1.34,1.34,0,1,1,1.528-1.121A1.34,1.34,0,0,1,365.939,94.478Z" fill="#fff"/>
        <path id="パス_287" data-name="パス 287" d="M198.33,380.881a1.34,1.34,0,1,1,1.528-1.122A1.34,1.34,0,0,1,198.33,380.881Z" fill="#fff"/>
        <path id="パス_288" data-name="パス 288" d="M273.688,514.541a1.34,1.34,0,1,1,1.527-1.121A1.339,1.339,0,0,1,273.688,514.541Z" fill="#fff"/>
        <path id="パス_289" data-name="パス 289" d="M274.9,305.717a1.34,1.34,0,1,1,1.527-1.121A1.339,1.339,0,0,1,274.9,305.717Z" fill="#fff"/>
        <path id="パス_290" data-name="パス 290" d="M376.745,254.238a1.34,1.34,0,1,1,1.528-1.121A1.34,1.34,0,0,1,376.745,254.238Z" fill="#fff"/>
        <path id="パス_291" data-name="パス 291" d="M360.268,245.817A1.34,1.34,0,1,1,361.8,244.7,1.34,1.34,0,0,1,360.268,245.817Z" fill="#fff"/>
        <path id="パス_292" data-name="パス 292" d="M130.447,215.134a1.34,1.34,0,1,1,1.527-1.122A1.34,1.34,0,0,1,130.447,215.134Z" fill="#fff"/>
        <path id="パス_293" data-name="パス 293" d="M262.058,127.795a3.872,3.872,0,1,1,4.413-3.24A3.871,3.871,0,0,1,262.058,127.795Z" fill="#fff"/>
        <path id="パス_294" data-name="パス 294" d="M137.307,334.279a3.872,3.872,0,1,1,4.413-3.24A3.872,3.872,0,0,1,137.307,334.279Z" fill="#fff"/>
        <path id="パス_295" data-name="パス 295" d="M210.119,110.9a3.871,3.871,0,1,1,4.414-3.24A3.872,3.872,0,0,1,210.119,110.9Z" fill="#fff"/>
        <path id="パス_296" data-name="パス 296" d="M51.724,275.436a2.69,2.69,0,1,1,3.066-2.251A2.69,2.69,0,0,1,51.724,275.436Z" fill="#fff"/>
        <path id="パス_297" data-name="パス 297" d="M357.979,199.934a1.943,1.943,0,1,1,2.215-1.626A1.944,1.944,0,0,1,357.979,199.934Z" fill="#fff"/>
        <path id="パス_298" data-name="パス 298" d="M136.391,101.688a1.943,1.943,0,1,1,2.215-1.626A1.944,1.944,0,0,1,136.391,101.688Z" fill="#fff"/>
        <path id="パス_299" data-name="パス 299" d="M51.137,284.624A1.943,1.943,0,1,1,53.352,283,1.942,1.942,0,0,1,51.137,284.624Z" fill="#fff"/>
        <path id="パス_300" data-name="パス 300" d="M338.478,75.74a1.633,1.633,0,1,1,1.861-1.367A1.633,1.633,0,0,1,338.478,75.74Z" fill="#fff"/>
        <path id="パス_301" data-name="パス 301" d="M468.214,370.507a1.633,1.633,0,1,1,1.861-1.367A1.632,1.632,0,0,1,468.214,370.507Z" fill="#fff"/>
        <path id="パス_302" data-name="パス 302" d="M353.827,335.525a1.632,1.632,0,1,1,1.862-1.366A1.632,1.632,0,0,1,353.827,335.525Z" fill="#fff"/>
        <path id="パス_303" data-name="パス 303" d="M187.5,367.665a1.32,1.32,0,1,1,1.505-1.1A1.319,1.319,0,0,1,187.5,367.665Z" fill="#fff"/>
        <path id="パス_304" data-name="パス 304" d="M64.98,374.169a1.833,1.833,0,1,0-1.534-2.09A1.834,1.834,0,0,0,64.98,374.169Z" fill="#fff"/>
        <path id="パス_305" data-name="パス 305" d="M510.933,218.5a1.833,1.833,0,1,0-1.534-2.09A1.833,1.833,0,0,0,510.933,218.5Z" fill="#fff"/>
        <path id="パス_306" data-name="パス 306" d="M151.139,98.7a1.189,1.189,0,1,1,1.356-1A1.189,1.189,0,0,1,151.139,98.7Z" fill="#fff"/>
        <path id="パス_307" data-name="パス 307" d="M484.091,163.338a1.189,1.189,0,1,1,1.356-.995A1.189,1.189,0,0,1,484.091,163.338Z" fill="#fff"/>
        <path id="パス_308" data-name="パス 308" d="M431.979,174.808a1.189,1.189,0,1,1,1.356-.995A1.189,1.189,0,0,1,431.979,174.808Z" fill="#fff"/>
        <path id="パス_309" data-name="パス 309" d="M420.991,111.8a1.189,1.189,0,1,1,1.356-1A1.19,1.19,0,0,1,420.991,111.8Z" fill="#fff"/>
        <path id="パス_310" data-name="パス 310" d="M81.076,208.006a1.189,1.189,0,1,1,1.356-.995A1.188,1.188,0,0,1,81.076,208.006Z" fill="#fff"/>
        <path id="パス_311" data-name="パス 311" d="M275.456,60.235a1.189,1.189,0,1,1,1.356-.995A1.189,1.189,0,0,1,275.456,60.235Z" fill="#fff"/>
        <path id="パス_312" data-name="パス 312" d="M36.771,369.065a1.189,1.189,0,1,1,1.356-.995A1.19,1.19,0,0,1,36.771,369.065Z" fill="#fff"/>
        <path id="パス_313" data-name="パス 313" d="M371.791,91.623a1.189,1.189,0,1,1,1.355-1A1.188,1.188,0,0,1,371.791,91.623Z" fill="#fff"/>
        <path id="パス_314" data-name="パス 314" d="M263.867,519.692a1.189,1.189,0,1,1,1.356-.995A1.188,1.188,0,0,1,263.867,519.692Z" fill="#fff"/>
        <path id="パス_315" data-name="パス 315" d="M199.722,489.514a1.189,1.189,0,1,1,1.355-.995A1.19,1.19,0,0,1,199.722,489.514Z" fill="#fff"/>
        <path id="パス_316" data-name="パス 316" d="M373.817,482.044a1.189,1.189,0,1,1,1.356-.995A1.19,1.19,0,0,1,373.817,482.044Z" fill="#fff"/>
        <path id="パス_317" data-name="パス 317" d="M63.719,361.2a1.189,1.189,0,1,1,1.356-1A1.19,1.19,0,0,1,63.719,361.2Z" fill="#fff"/>
        <path id="パス_318" data-name="パス 318" d="M243.74,314.495a1.189,1.189,0,1,1,1.356-.995A1.189,1.189,0,0,1,243.74,314.495Z" fill="#fff"/>
        <path id="パス_319" data-name="パス 319" d="M560.941,263.178a1.189,1.189,0,1,1,1.356-.995A1.189,1.189,0,0,1,560.941,263.178Z" fill="#fff"/>
        <path id="パス_320" data-name="パス 320" d="M441.22,348.7a1.189,1.189,0,1,1,1.356-.995A1.189,1.189,0,0,1,441.22,348.7Z" fill="#fff"/>
        <path id="パス_321" data-name="パス 321" d="M235.984,121.135a1.189,1.189,0,1,1,1.355-1A1.188,1.188,0,0,1,235.984,121.135Z" fill="#fff"/>
        <path id="パス_322" data-name="パス 322" d="M102.559,339.727a1.189,1.189,0,1,1,1.355-.995A1.189,1.189,0,0,1,102.559,339.727Z" fill="#fff"/>
        <path id="パス_323" data-name="パス 323" d="M133,489.823a1.189,1.189,0,1,1,1.355-1A1.189,1.189,0,0,1,133,489.823Z" fill="#fff"/>
        <path id="パス_324" data-name="パス 324" d="M308.686,238.92a1.189,1.189,0,1,1,1.355-.995A1.188,1.188,0,0,1,308.686,238.92Z" fill="#fff"/>
        <path id="パス_325" data-name="パス 325" d="M294.119,219.77a1.189,1.189,0,1,1,1.356-1A1.189,1.189,0,0,1,294.119,219.77Z" fill="#fff"/>
        <path id="パス_326" data-name="パス 326" d="M108.509,124.2a1.189,1.189,0,1,1,1.356-1A1.19,1.19,0,0,1,108.509,124.2Z" fill="#fff"/>
        <path id="パス_327" data-name="パス 327" d="M254.39,490.922a1.189,1.189,0,1,1,1.355-.995A1.189,1.189,0,0,1,254.39,490.922Z" fill="#fff"/>
        <path id="パス_328" data-name="パス 328" d="M74.855,381.045a1.189,1.189,0,1,1,1.356-1A1.19,1.19,0,0,1,74.855,381.045Z" fill="#fff"/>
        <path id="パス_329" data-name="パス 329" d="M182.26,110.069a1.189,1.189,0,1,1,1.356-1A1.188,1.188,0,0,1,182.26,110.069Z" fill="#fff"/>
        <path id="パス_330" data-name="パス 330" d="M113.424,155.945a1.189,1.189,0,1,1,1.355-1A1.188,1.188,0,0,1,113.424,155.945Z" fill="#fff"/>
        <path id="パス_331" data-name="パス 331" d="M417.13,87.785a1.189,1.189,0,1,1,1.356-1A1.19,1.19,0,0,1,417.13,87.785Z" fill="#fff"/>
        <path id="パス_332" data-name="パス 332" d="M380.357,387.241a1.189,1.189,0,1,1,1.356-.995A1.188,1.188,0,0,1,380.357,387.241Z" fill="#fff"/>
        <path id="パス_333" data-name="パス 333" d="M229.861,42.23a1.189,1.189,0,1,1,1.356-.995A1.189,1.189,0,0,1,229.861,42.23Z" fill="#fff"/>
      </g>
    </g>
  </g>
</svg>
